<svg xmlns="http://www.w3.org/2000/svg" width="236" height="77" viewBox="0 0 3138 1024"><path fill="#fff" d="M340.713 53.062c-2.394-3.857-3.458-8.378-2.926-13.432 1.729-15.958 14.23-24.204 30.587-24.204h240.574c16.357 0 28.858 8.245 30.587 24.204.532 4.921-.532 9.575-2.926 13.432 7.048 1.33 16.49 1.064 26.597-1.197 9.176-2.128 17.687-5.186 27.927-12.368 14.363 11.304 25.534 15.692 36.837 17.687 5.585 1.064 11.304 1.197 17.022.399-14.895-15.028-10.639-37.901 4.522-47.077 18.219-11.171 37.103-4.522 50.402 12.9l68.621 89.899c7.979 10.506-1.197 26.597-1.197 26.597s17.82-4.788 25.799 5.718l68.621 89.899c13.299 17.421 14.762 37.369-.665 52.264-13.033 12.501-36.837 10.373-47.077-9.043l-1.995-3.724c-3.857 5.984-6.649 12.767-8.511 18.086-5.186 15.294-8.245 33.247-8.644 51.466-.266 17.155 3.325 41.758 10.24 62.903 8.245 25.401 26.198 52.397 26.198 52.397s-2.66 66.095-46.811 174.479C838.614 747.12 774.648 817.869 722.251 866.01 599.77 978.384 488.46 1018.679 488.46 1018.679S377.15 978.384 254.669 866.01c-52.397-48.008-116.364-118.89-162.244-231.663-44.152-108.384-46.811-174.479-46.811-174.479s17.953-26.863 26.198-52.397c6.915-21.145 10.506-45.615 10.24-62.903-.266-18.219-3.325-36.039-8.644-51.466-1.862-5.319-4.655-12.102-8.511-18.086l-1.995 3.724c-10.24 19.416-34.045 21.544-47.077 9.043-15.426-14.762-13.964-34.843-.665-52.264l68.621-89.899c7.979-10.506 25.799-5.718 25.799-5.718s-9.176-16.091-1.197-26.597l68.621-89.899c13.299-17.421 32.183-23.938 50.402-12.9 15.028 9.176 19.283 32.05 4.522 47.077 5.718.798 11.437.532 17.022-.399 11.304-2.128 22.342-6.516 36.837-17.687 10.24 7.181 18.884 10.24 27.927 12.368 10.506 2.261 19.815 2.527 26.996 1.197z"/><path fill="#273a7f" d="M799.784 23.406c13.299 17.421 59.445 77.797 68.621 89.899 7.979 10.506-1.197 26.597-1.197 26.597s17.82-4.788 25.799 5.718c9.176 12.102 55.323 72.478 68.621 89.899-13.565-15.028-38.699-14.097-58.78-1.995-13.698 8.245-30.853 24.47-40.162 41.093-8.777 15.559-15.825 41.758-18.219 60.642-3.059 24.736.931 56.652 8.777 82.851 8.245 27.262 29.124 60.642 29.124 60.642S881.304 537 838.216 634.347c-30.587 69.286-79.526 149.743-142.562 220.094-107.321 119.954-207.327 164.106-207.327 164.106S388.454 974.395 281 854.441c-63.036-70.35-111.842-150.807-142.562-220.094-43.088-97.346-44.152-155.595-44.152-155.595s20.879-33.38 29.124-60.642c7.979-26.065 11.969-58.115 8.777-82.851-2.394-18.884-9.442-45.083-18.219-60.642-9.309-16.623-26.464-32.848-40.162-41.093-20.214-12.102-45.216-13.033-58.78 1.995 13.299-17.421 59.445-77.797 68.621-89.899 7.979-10.506 25.799-5.718 25.799-5.718s-9.176-16.091-1.197-26.597c9.176-12.102 55.323-72.478 68.621-89.899-10.905 17.022-5.054 42.689 12.368 56.519 14.629 11.703 32.715 11.57 44.817 11.57 17.82 0 41.226-5.054 58.248-18.618 6.516 8.91 29.39 18.618 52.663 18.618 37.635 0 50.801-25.135 50.801-41.758 0-17.953-11.969-34.178-28.06-34.178h240.574c-16.091 0-28.06 16.224-28.06 34.178 0 16.623 13.166 41.758 50.801 41.758 23.273 0 46.279-9.708 52.663-18.618 17.022 13.565 40.561 18.618 58.248 18.618 12.102 0 30.188.133 44.817-11.57 18.086-13.964 24.071-39.497 13.033-56.519z"/><path fill="#fff" d="M488.594 123.013s22.342 26.597 50.003 26.597h199.348l67.956 87.239s-17.687 20.081-23.007 37.901c-7.314 24.47-8.245 55.456-5.319 83.25 3.857 35.774 14.097 71.281 14.097 139.902 0 50.934-6.516 83.649-20.879 136.312-15.294 55.722-58.647 128.199-99.873 177.804-70.35 84.58-150.142 123.944-150.142 123.944l-32.316-25.135-32.316 25.135s-79.792-39.364-150.142-123.944c-41.226-49.604-84.58-122.082-99.873-177.804-14.363-52.663-20.879-85.511-20.879-136.312 0-68.621 10.24-104.129 14.097-139.902 2.926-27.794 1.995-58.78-5.319-83.25-5.319-17.687-23.007-37.901-23.007-37.901l67.956-87.239h199.348c27.927 0 50.269-26.597 50.269-26.597z"/><path fill="#da1f32" d="M583.414 674.643h-31.917v41.226c13.698-10.772 25.135-25.002 31.917-41.226z"/><path fill="#da1f32" d="M645.785 634.215h-11.437c0-6.383-.399-12.501-1.064-18.618h43.088c-7.181-74.34-57.184-136.046-124.875-160.116v160.116h50.136c.931 6.117 1.33 12.368 1.33 18.618h-61.44V452.422c-16.756-4.921-34.577-7.58-52.929-7.58-8.777 0-17.288.665-25.666 1.862v219.562l-50.003 42.157c-10.107-10.373-18.086-22.874-23.406-36.837h63.302V540.86l-30.055 1.197h-98.942c-15.161 27.262-23.938 58.647-23.938 92.16 0 92.426 65.829 169.292 152.935 186.049V787.95c-20.746-4.921-40.029-13.831-56.785-26.065l15.825-13.432c15.161 10.24 32.316 17.554 50.934 21.145v52.264c8.378 1.197 17.022 1.862 25.666 1.862h4.256V476.362c6.25.133 12.501.665 18.618 1.596v344.303c10.24-1.197 20.347-3.325 30.055-6.117v-45.482c45.349-17.687 79.659-57.583 89.766-106.39h43.62c1.596-9.841 2.394-19.948 2.394-30.188h-31.385zM344.17 571.977h78.728v19.948h-85.777c1.995-6.915 4.256-13.565 7.048-19.948zm-12.766 62.238c0-4.256.133-8.378.532-12.501h90.963v19.948H331.67c-.133-2.394-.266-4.921-.266-7.447zm42.024 107.454c-17.953-19.416-31.119-43.487-37.635-70.084h20.746c6.117 21.677 17.288 41.226 32.316 57.184l-15.426 12.9zm89.5-4.389c-9.043-2.261-17.554-5.718-25.534-10.107l25.534-21.544v31.651zm78.595-1.197v-71.68h57.45c-8.378 31.119-29.523 57.051-57.45 71.68zm40.029-150.674v-78.595c26.331 19.416 46.412 46.811 56.652 78.595h-56.652z"/><path fill="#da1f32" d="M350.288 505.484l23.14 21.544c21.012-22.741 48.274-39.364 79.393-46.678v-32.183c-40.162 7.713-75.803 28.326-102.533 57.317zM551.497 779.038v33.912c61.041-21.677 107.586-73.941 121.55-138.572h-32.316c-12.368 47.077-45.615 85.511-89.234 104.661zM300.551 355.607l5.851-1.463h.133l-5.319-21.145 7.447-1.862c2.128-.532 12.634-3.857 9.575-16.49-2.261-9.176-7.713-12.767-16.224-10.639l-13.432 3.325h-.133l12.102 48.274zm-4.655-44.151l7.846-1.995c.266-.133 1.995-.399 3.99.399 2.128.931 3.591 2.926 4.389 5.984.798 3.192.266 5.718-1.33 7.58-1.064 1.197-2.66 1.995-4.522 2.527l-6.25 1.596-4.123-16.091zM337.92 294.3c-9.309 1.995-13.299 8.777-11.171 19.017l3.325 15.958c1.463 6.649 3.591 11.171 6.649 13.698 1.995 1.729 4.522 2.527 7.58 2.527 1.33 0 2.793-.133 4.256-.532 5.054-1.064 8.245-3.325 9.974-6.649 1.729-3.591 1.995-8.511.532-15.294l-3.325-15.958c-2.128-10.24-8.511-14.762-17.82-12.767zm11.57 13.964l3.458 16.357c1.064 5.186 1.064 8.644.133 11.038-.931 2.128-2.66 3.325-5.585 3.99-3.059.665-5.054.266-6.782-1.33-1.862-1.729-3.325-4.921-4.389-10.107l-3.458-16.357c-.931-4.256-.399-7.58 1.596-9.708 1.064-1.197 2.66-1.995 4.522-2.394.665-.133 1.463-.266 2.128-.266 1.064 0 2.128.266 3.059.665 2.66 1.064 4.522 3.857 5.319 8.112zM385.928 337.521l23.14-2.394.133-.133-.665-5.452v-.133l-17.022 1.729-4.655-43.62v-.133l-6.117.665 5.186 49.338zM434.469 309.594l-.665-5.585v-.133l-16.756 1.729-1.596-15.559 18.086-1.862-.665-5.585v-.133l-24.204 2.527 5.186 49.338v.133l24.603-2.527-.532-5.585v-.133l-18.485 1.862-1.729-16.756 16.623-1.729zM459.337 332.335h.931c5.186-.133 8.777-1.729 11.038-4.921 2.394-3.192 3.325-8.112 3.192-14.895l-1.064-31.385v-.133l-6.25.266 1.064 31.784c.133 5.319-.399 8.644-1.862 10.905-1.33 1.862-3.192 2.793-6.25 2.926h-.532c-2.793 0-4.655-.798-5.984-2.527-1.596-1.995-2.394-5.452-2.66-10.639l-1.064-31.651v-.133l-6.25.266 1.064 31.518c.399 12.9 4.921 18.618 14.629 18.618zM508.808 331.138l8.378.266 1.729-49.604v-.133l-5.585-.133-1.463 42.157-16.623-42.689-.133-.133-8.644-.266-1.729 49.604v.133l5.585.133 1.463-42.689 16.889 43.221zM541.257 333.265h1.197c4.921 0 9.176-1.064 13.299-3.192l.931-24.204v-.133l-14.895-.532-.266 5.585v.133l8.644.266-.532 14.629c-1.33.931-3.99 1.862-7.58 1.862h-.798c-5.186-.133-8.378-2.527-7.979-13.698l.532-16.756c.266-8.91 5.319-10.24 8.511-10.24h.399c2.926.133 4.921.931 6.25 2.527 1.197 1.463 1.729 3.724 1.596 6.649v.133l6.516.266v-.133c.399-4.921-.532-8.511-2.66-10.905-2.261-2.527-5.984-3.857-11.437-3.99h-.798c-4.522 0-7.979 1.33-10.506 3.99s-3.857 6.649-4.123 11.703l-.532 16.224c-.266 6.782.798 11.703 3.192 14.895s5.984 4.788 11.038 4.921zM608.017 289.38l-18.884 19.549 2.66-21.544-6.117-.798-6.117 49.205v.133l6.25.798 3.059-25.666 13.166 27.661 7.846.931-14.496-29.257 19.416-20.081.266-.133-6.915-.798zM628.763 345.101c1.463.266 2.926.532 4.256.532 7.447 0 11.836-5.186 14.23-16.224l6.516-30.853-6.117-1.33-6.516 31.119c-1.729 8.112-4.256 12.9-11.304 11.304-3.059-.665-4.788-1.862-5.718-3.99-1.064-2.394-1.064-5.851 0-11.038l6.516-30.986v-.133l-6.117-1.33-6.516 30.853c-2.527 13.166.665 19.948 10.772 22.076zM693.394 308.397l-6.782-1.729-21.145 17.155 5.186-21.012v-.133l-5.984-1.463-11.969 48.141v.133l5.984 1.463 6.25-25.002 9.708 28.991 7.447 1.862.266.133-10.905-30.853 21.81-17.554zM353.346 375.422l-3.059-17.288v-.133l-4.921.798-.133.133 7.048 40.428.133.133 4.921-.931h.133l-3.192-18.485 13.033-2.261 3.325 18.352v.133l4.921-.931h.133l-7.048-40.561-.133-.133-4.921.931h-.133l3.059 17.421zM380.742 365.847l1.596 13.299c.665 5.585 2.128 9.442 4.522 11.836 1.862 1.862 4.256 2.66 7.314 2.66.665 0 1.463 0 2.261-.133 8.511-1.064 11.57-6.383 10.24-17.288l-1.596-13.299c-.931-7.846-5.054-12.102-11.703-12.102-.665 0-1.463 0-2.128.133-7.846.931-11.57 6.25-10.506 14.895zm11.171-10.373c.399 0 .665-.133 1.064-.133 1.197 0 2.261.266 3.059.798 2.128 1.197 3.458 3.591 3.857 7.181l1.729 13.698c.532 4.389.266 7.181-.665 9.043-.931 1.596-2.394 2.527-4.921 2.793s-4.256-.133-5.452-1.596c-1.463-1.596-2.394-4.256-2.926-8.644l-1.729-13.698c-.798-7.447 3.325-9.043 5.984-9.442zM438.724 382.072l-17.953-33.38v-.133l-7.048.665h-.133l3.591 40.96v.133l4.655-.399-3.059-35.242 18.219 33.779v.133l6.782-.532.133-.133-3.591-40.96v-.133l-4.522.532zM464.125 388.189h.399c4.522-.133 8.245-1.064 11.836-3.325l-.399-19.948v-.133l-12.368.266.133 4.655v.133l7.181-.133.266 12.102c-1.064.931-3.458 1.862-6.782 1.862h-.266c-4.256 0-6.782-1.862-6.915-11.038l-.266-13.831c0-3.591.931-6.117 2.793-7.58 1.064-.798 2.394-1.197 4.123-1.197h.266c2.261 0 3.99.532 5.054 1.729s1.596 2.926 1.596 5.452v.133l5.319-.133v-.133c.133-4.123-.798-7.048-2.66-8.91s-4.921-2.793-9.176-2.793h-.532c-7.979.133-12.235 5.054-12.102 13.698l.266 13.432c.266 10.772 3.99 15.692 12.235 15.692zM509.34 346.564v-.133l-5.186-.133-1.463 41.093 5.054.266h.133l.798-21.411 12.767 21.81 6.383.266h.266l-14.23-23.14 14.762-17.953.133-.133-5.851-.266h-.133l-14.097 17.554zM548.305 347.096c-3.99-.399-7.181.665-9.575 2.793-2.261 2.128-3.458 5.319-3.857 9.575l-1.197 13.432c-.532 5.718.133 9.708 1.995 12.501 1.729 2.66 4.655 4.123 8.91 4.522.665 0 1.197.133 1.729.133 3.325 0 5.984-.931 7.846-2.926 2.261-2.394 3.591-6.25 4.123-11.969l1.197-13.432c.665-8.777-3.192-13.964-11.171-14.629zm5.852 13.831l-1.197 13.831c-.798 9.176-3.591 10.905-7.979 10.506-2.527-.266-4.123-1.064-5.054-2.66-1.064-1.862-1.33-4.655-1.064-9.043l1.197-13.831c.665-6.915 4.389-8.112 7.048-8.112h.798c2.66.266 6.915 1.729 6.25 9.309zM577.696 350.687l-7.181-.931-4.921 40.827-.133.133 4.655.532 4.256-35.109 10.772 36.97h.133l6.915.931 4.921-40.827v-.133l-4.522-.532-4.256 34.577zM605.224 367.31l-2.261 13.299c-.931 5.585-.665 9.708.931 12.634 1.463 2.793 4.256 4.522 8.511 5.319 1.596.266 3.059.399 4.522.399 2.66 0 5.186-.399 7.713-1.33h.133l3.458-19.682v-.133l-11.969-2.128h-.133l-.798 4.655v.133l7.048 1.197-2.128 11.969c-1.33.665-3.724 1.064-7.048.532-2.527-.399-3.99-1.33-4.788-3.059-.931-1.862-.931-4.788-.266-9.043l2.394-13.698c1.33-7.447 5.851-7.846 8.378-7.447 2.394.399 3.99 1.33 4.788 2.793.798 1.33 1.064 3.192.532 5.585v.133l5.186.931h.133v-.133c.798-3.99.532-7.048-.931-9.176-1.596-2.261-4.522-3.857-8.91-4.655-7.846-1.596-13.033 2.261-14.496 10.905zM618.124 257.995c.931-.133 1.33.266 1.995.532h3.99c.266.399.931.266 1.33.266.399-.399 1.33-.133 1.995-.266.133-.399.399-.133.665-.133.399-.266.798-.532 1.33-.931.532-.133 1.33-.133 1.729-.665.399-.133.798-.399 1.33-.532.133-.532.931-.266 1.064-.798.532-.133.931-.665 1.463-.665.399-.266 1.064-.266 1.197-.798.665 0 1.064-.931 1.596-1.064 1.197-1.064 2.128-2.394 3.458-3.059.399-.532.798-.931 1.33-1.197.532-.399 1.197-.665 1.463-1.33.931-.133 1.064-1.197 1.596-1.729 0-.532.399-.931.266-1.463-.399-.399.133-1.33-.532-1.596 0-.266-.133-.665.266-.665 0-.266.266-.665-.266-.665.266-.931-.532-1.33-.266-2.261-.399-.133-.133-.532-.266-.798.133-.532.665-.266.798-.532.399-.399 1.33-.133 2.128-.266.399.266.665.399 1.064.532.665.399 1.064.798 1.729 1.197.665-.133.532 1.064 1.33.931.133.399.399.798.532 1.33-.133 1.064.266 2.261-.266 3.059-.399.399.133 1.197-.399 1.463.266.931-.532 1.197-.532 1.995-.532.931-1.064 1.995-1.33 2.926-.665.266-.266 1.197-.798 1.33.399.931-.931.532-.532 1.33-.399.532-.665 1.197-1.197 1.596-.532.266-.931.532-1.463.798-.665-.133-.931.399-1.33.532s-.798.665-1.197.798c-.399.532-1.33.532-1.729 1.064-.931.133-.399 1.463-.399 2.128.399-.133.399.399.532.399.798-.266 1.064.399 1.862.266.532-.532 1.729 0 2.261-.532.931.399 1.064-.532 1.596-.665 1.064-.133 1.862.133 2.394.665.532-.133.798.399 1.463.266.266-.532 1.197 0 1.33-.532.665.399.399-.532 1.197-.266.665-.532 1.463.133 2.261.266.133.399.931 0 1.197.399.399.266 1.33-.133 1.463.532.665-.133.798.399 1.463.266.532.798 1.463.931 1.33 2.128.665.931-.266 1.729 0 2.793-.266.532-.266 1.729 0 2.261.532 1.197-.133 2.261-.266 3.458-.399 0 0 .798-.399.931-.399.532 0 1.33-.532 1.596-.133 1.729-1.197 3.059-2.394 3.99-.399.133-.665.532-1.064.931-.399.266-1.064.532-1.463.532-1.064.532-2.128.133-3.325-.133-2.128-.266-3.591.532-5.718.133-.266-.399-1.064.133-1.33-.399-.798.266-1.064-.399-1.596-.665-1.197-.532-2.66-.931-3.192-2.394-.798-.399-.266-1.729-.532-2.527.266-.399.532-.532.532-1.197.399 0 0-.931.665-.665.266-.798 1.463-.133 2.128-.532h3.458c.266.399 1.197-.133 1.33.399.266-.399.931-.133 1.33-.266.665.399 1.729.133 2.527 0 .399-.133.798-.399 1.197-.532 1.197.266 1.596-.399 2.527-1.33-.133-.266.133-.665-.266-.665-.266-1.064-1.197-1.463-1.862-2.261-.266-.133-.798-.266-1.064-.399-.266-.399-.399-.532-.931-.399-.266-.399-.798-.266-1.33-.266.266 0-.133-.133-.399 0-.133.399-1.064-.133-1.064.532-.665-.133-1.197.133-1.729.266-.399.399-1.197.133-1.729.133-.399-.532-.798.399-1.463 0 0 .399-.665 0-.665.532-.798.133-1.33-.266-1.729-.665-.532-1.197-2.128-1.862-2.128-3.192-.399-.266-.266-.931-.266-1.33.532-.798-.133-1.729-.266-2.66-.399-.399-.665-1.064-1.33-.931-.399-.399-1.197-.266-1.729-.266-.665.399-1.463.665-2.128 1.463 0 .532-.798.532-.532 1.33-.399.399-.133 1.064-.266 1.463.532.266 0 1.197.532 1.33-.133.532.266 1.463-.399 1.862l.399 3.059c-.266.532.399.665.133 1.33.931.532.133 2.261.665 3.192-.399.399.133.399-.266.798.399.266.133.931.266 1.33.399.399.133 1.33.266 1.995.399 0-.133.532.399.532.133.532.399 1.197.798 1.463 0 .532.399.931.532 1.33.399.399.266.798.665 1.064 0 .399.665.532.532 1.197.399.665 1.197 1.33 1.862 1.995.665 0 1.197.266 1.596.399.399-.399 1.064-.133 1.463-.133.133-.399.931 0 1.064-.532.532.133 1.33-.133 1.596.266.665-.266.798.399 1.33.266.133.399.931-.133 1.064.399 1.197.133 2.793-.399 3.591.266.665-.266.798.399 1.596.266.399.266.665.399 1.197.665.532-.266.266.665.931.399.532.399 1.729.399 2.261 0 .399-.532 1.197-.532 1.596-.931.798-.532 1.463-.931 2.128-1.596 1.33-.665 2.128-1.862 2.527-3.192.665-.399.798-1.197 1.197-1.596.532-.399.931-1.064 1.197-1.463-.133-.798 1.064-.931.665-1.995.266-.399.399-.798.399-1.197.399-.532.399-1.33 1.064-1.729-.266-.399.399-.399.266-.931.399-.399.266-1.33.798-1.596 0-.399.665-.532.399-1.197.532-.266.532-.931.931-1.33.532-.266.399-.931.798-1.197 0-.665.266-1.596-.266-1.995-.266-.399-.266-1.064-.798-1.33-.266-.532-.798-1.064-1.064-1.463-.532-1.197-1.862-.931-2.394-1.862-1.064.133-1.064-1.064-2.128-.931-.399-.532-1.064-.665-1.463-1.197-.532-.399-1.463-.266-2.261-.266-1.463-.399-2.66-1.596-3.192-3.059-.399-.399-.133-1.064-.532-1.33.399-.532 0-1.463.399-1.995-.399-.532-.133-1.463-.266-2.261.399-.399.133-1.064.266-1.463.399-.133 0-.665.399-.798-.266-.665.399-.798.133-1.463.532-.133.266-.931.399-1.33.399-.399 0-1.197.399-1.463 0-.798.931-1.064.931-1.729.665-.399 1.197-.931 2.128-1.064.133-.399.798.133.931-.399.532-.266 1.33-.266 1.596-.665.399.133.931 0 1.33-.266.133-.399.798.133.931-.399l3.192.266c1.33-.266 1.995.399 3.192.133.399.399 1.33 0 1.596.399.931-.266 1.33.399 2.128.266.399.399 1.064.133 1.596.266.133-.133.399-.399.399 0 1.064-.266 1.596.266 2.394.399.399.399 1.064.133 1.596.266.133-.399.399-.133.665-.266.399-.266.532-.532.665-.931.399-.266.133-.798.266-1.197-.133-.399-.532-.532-.532-1.064-.665-.665-1.463-1.197-2.261-1.463-.399-.133-.532-.532-1.064-.665-.399-.133-.665-.532-1.33-.399-.532-.399-1.596-.133-2.527-.133-.266.399-.931.133-1.33.133-.399.532-1.197 0-1.463.532l-2.926-.266c-.798.266-.931-.665-1.862-.399-.399-.399-1.33-.266-2.128-.266l-1.064-.665c-.665-.266-1.197-1.064-1.596-1.463v-3.192c.399.133.266-.399.266-.532.399-.798 1.197-1.064 1.463-1.729.665 0 1.197-.532 1.596-.665.665-.532 1.33-1.463 1.995-2.261.133-1.33-.133-2.66-1.197-3.325-1.064-.133-1.463-1.33-2.261-1.862-.399.133-.399-.399-.532-.399-.665-.399-1.729-.133-2.66-.266l-1.33.665c-.931 0-1.596.532-2.394.532-.399.399-1.064.532-1.463.931-.399.266-.798.399-1.33.532-.665-.133-.798.665-1.463.532-.399.532-1.33.532-1.596 1.064-.532.133-1.064.532-1.729.399-.133.133-.399.399-.399 0-1.33 0-2.261.133-3.325.532l-1.197.798c-.133.931.665 1.463 1.33 1.862.399 0 .399.399.798.665.399.133.798.133 1.197.399.266-.133.798.133.931-.266.133.399.665.133.931.399.532.266.532.798.798 1.197.399.532.133 1.463.266 2.261-.399.133-.133.532-.266.798-.665.532-1.197 1.463-1.995 1.862-.399.266-.798.532-1.33.532h-4.921c-.399-.399-1.064-.133-1.463-.133-.133-.399-.798 0-1.064-.399-.931 0-1.862-.133-2.66-.266-.399.532-1.596 0-2.128.532-1.064-.266-1.463.532-2.66.266 0-.399-.665 0-.665-.399-.532-.266-1.463 0-1.995-.399-.532.266-1.33.532-1.596.931-.399 1.064.665.931.798 1.463 1.064.266 1.596 1.197 1.995 1.862.399.266.931.399 1.33.532.532-.266.665.399 1.33.266.399.266.665.399 1.197.399.266.399.798.133 1.197.266.931 0 1.197.931 1.33 1.596-.399.266-.133.798-.266 1.33-.399.532-.798.931-1.064 1.463l-1.197 1.596c.399.665-.399.532-.399 1.197-.532.665-1.197 1.463-1.995 1.995-.266.532-.798.532-1.197.665-.532.399-1.064.798-1.596 1.33-.532.266-1.064.532-1.463 1.064-1.197.665-2.128 1.995-3.192 2.926-.798 0-1.064 1.064-2.128.665 0 .399-.399.266-.665.266-.399.266-.931.399-1.197.798-.532.399-1.064.798-1.729.931-.665.532-1.862-.133-2.527.399-.266.532-1.064.532-.798 1.33.133-.399.532-.532.665-.133z"/><path fill="#da1f32" d="M681.026 252.01c0-.399-.532-.133-.532-.532-.266-.266-.532-.665-.931-.532.133-.931-.931-.532-1.064-1.33-.399-.532-1.197-.931-2.128-1.197-.266-.399-.665-.266-1.064-.399-.399-.266-.798-.399-1.197-.665-1.862-.133-3.857.399-5.452-.266-.399-.532-.931-.665-1.729-.665-.399.665-.931 1.33-1.197 1.995-.665.399.399.399 0 1.064.665.532 1.064 1.596 2.128 1.995.399.399 1.197.399 1.596.532 1.064.399 1.729 1.197 2.66 1.596.133.399.665.399 1.064.665 1.33.665 1.995 2.128 3.591 2.128.399.133.665.532 1.33.399.133.399.399.399.798.532.532.798 1.463.798 1.862 1.596.665 0 .665.931 1.33.798a2.612 2.612 0 0 0 1.729 1.197c.266.399.798.133 1.197.266.665-.399.665-1.197.931-1.729 1.064-.266.931-1.33 1.197-2.128-.133-.399-.532-.798-.532-1.33-.532-.266-.532-1.197-1.197-1.33-.133-.532-.798-.665-1.064-1.197 0-.532-.665-.532-1.064-.798-.798-.133-1.33-.798-2.261-.665zM541.789 212.779c.266.133.399.266.399.532.133.399.399.399.665.532h3.724c.399.266.665.399 1.197.665.399.133.798.399 1.33.532 1.862.266 2.66-1.33 3.857-2.261.133-.931.133-1.33 0-2.261-1.064-1.33-2.261-2.261-3.458-3.458 0-.665-.532-1.197-1.197-1.33-.532-.399-1.463-.133-1.995.266-.266 1.33-1.729 1.596-1.995 2.793-.266.399-.532.266-.665.532-.665-.266-.798.532-1.463.266-.266.266-.665.266-.532.798-.931 1.197.665 1.33.133 2.394zM556.817 247.755c.399 0 .665-.532 1.197-.532.665.266 1.064-.266 1.463-.532.399-.532.931-.665 1.33-1.197.532-.266 1.064-.665 1.596-.931.399-.532.931-.665 1.33-1.33.665 0 .532-.798 1.197-1.197.399-.532.399-1.197.931-1.463.133-.532.399-1.197.665-1.729.665-.532 1.064-1.463 1.596-2.128.133-.665 1.197-.798 1.064-1.596.532-1.064 1.729-1.463 2.128-2.394.931-.798 1.33-2.261 2.66-2.394.399-.532 1.33-.399 1.596-.798.532.133.665-.532 1.33-.266.266-.532 1.064-.266 1.596-.399.266.399.665.399 1.064.665.399.133.665.532 1.064.665.399.532 1.33 1.064 1.596 1.729.931.798 1.596 1.596 1.995 2.66.665.266 1.197.798 1.33 1.33.665.133.399 1.197.665 1.463.133.399.399.931.532 1.33.266 1.197-.399 1.596-.931 2.261-.133 0-.399 0-.399.266-.399-.266-.532.532-.798 0-.399 0-1.064.133-1.33-.266-.133.532-.931 0-1.197.532l-3.724-.266c-.798.133-1.33-.133-1.862-.532-.399 0-.532-.399-1.197-.266-.532.266-.798 1.064-1.463 1.197-.133 1.197-1.463.931-1.995 1.862-.266.532-.399.931-.532 1.33 0 .399-.266 1.064.133 1.33.399.399.798.532 1.33.399.266-.399 1.064.133 1.33-.399.665.266.665-.532 1.33-.266.399-.266.931-.532 1.33-.532h3.059c.399.266.798.399 1.33.798.266.399.532.931.532 1.33.399.399.266 1.064.266 1.596-.133.399-.532.532-.931.798-.532.266-.931.532-1.33 1.064.133.798-.798.266-.798.931-.931.266-1.197 1.33-2.394 1.197-.399.399-.931.399-1.463.532-.399.399-1.064.133-1.596.266 0 .399-.399.266-.665.266 0-.532-.798 0-1.064-.399-.532 0-.931-.399-1.33-.532-1.064-.133-1.33-1.197-2.394-1.064-.399-.399-1.463-.399-1.862 0-.532.532-1.33 1.197-1.064 2.261-.399.532.133 1.33-.399 1.862.266 1.064-.399 1.33-.266 2.394-.399.133 0 .798-.399.931.133.532-.133 1.33.266 1.596-.399.665.798.399.532 1.33.399.399.532 1.197.798 1.862.399.532.931 1.064 1.064 1.862.399.399.798 1.064 1.33 1.463.399-.133.399.266.399.399 1.064.266 1.33 1.33 1.995 1.862.798.399 1.862.798 2.394 1.33.798-.133.532.665 1.064.931.532-.133.798.266 1.197.399l3.458-.266c1.064.266 1.463-.532 2.527-.266.399-.399.798.266 1.33 0 .399.266 1.064.399 1.596.399 0 .532.798 0 .931.399.266 0 .532.133.532-.266.798.399.665-.532 1.33-.266.532-.266.931-.532 1.33-.665.399-.665 1.729-.798 1.463-1.995-.266-.532-.532-1.064-.931-1.596-.798-.133-1.064-1.33-1.995-1.33-.133-.399-.798.133-1.064-.399-1.197-.133-2.128.133-2.926.532-1.33.133-2.261-.133-3.192-.532h-3.99c-.399.399-1.197.133-2.128 0-.798-.532-.798-1.729-1.862-2.128-.532-.399-.798-.798-1.064-1.33-.665-.399-.266-1.729-.399-2.527.399-.133.133-.532.133-.931.665-.266.399-1.197 1.33-1.064.266-.532.798-.266 1.197-.266.399-.532 1.463 0 1.995-.532.532.266.665-.532 1.33-.266.133-.399.931.133 1.064-.399.665.399.399-.532 1.197-.399.399-.133.931-.399 1.33-.532.665 0 1.064-.266 1.463-.532.665.133.798-.532 1.596-.399.133-.399.798 0 .931-.532.798.399.665-.532 1.33-.532.532-.931 1.596-1.064 2.128-1.995 1.064-.399 1.197-1.596 2.394-2.527.532-.931 1.596-1.197 2.394-1.729.798.399 1.064-.399 1.862-.133.399.399 1.33-.133 1.596.399 1.33 0 2.261.665 2.793 1.729.665 0 1.064.665 1.596.798.532.931 1.463 1.33 2.261 1.995.665-.133 1.463.133 2.261 0h3.192c.399-.133 1.064.133 1.197.133.399-.532 1.33 0 1.862-.532s1.33-.931 1.064-1.995c-.266-.266-.399-.665-.798-.532-.399-.266-.665-.399-1.33-.399a9.776 9.776 0 0 0-2.527-2.128c-.399-.266-1.197-.133-1.596-.399-1.064-.133-1.463-1.197-2.394-1.596-.532 0-1.064-.399-1.33-.798-.266-.931-1.33-1.064-1.995-1.596-.931 0-1.33-.532-2.261-.798-.399-.133-.532-.532-1.064-.665-.931-.532-1.064-1.463-1.596-2.261-.133-1.064-.931-1.33-1.33-2.261-.532-.399-.532-1.064-.798-1.596-.133-.266-.399-.399-.532-.798-.399-.798-1.463-1.197-1.463-2.128-.532-.399.266-.665 0-1.33.399-.665 1.33-.798 2.128-1.463.532 0 .931-.133 1.33-.399l3.857-.399c1.197 0 1.995-.532 2.926-1.064.266-.798-.133-1.463-.665-1.862-.532-.931-1.862-.532-3.059-.665-.399.399-1.596.399-2.128 0-1.596.133-3.458-.133-4.921.266-.266-.399-.931-.133-1.33-.399-.665-.266-1.33-.931-1.33-1.729-.399-.399-.266-1.33-.266-1.995.399-.266-.266-1.33.532-1.33-.133-.665.399-.931.399-1.33.665-.266.399-1.197 1.064-1.33-.266-.798.798-.266.532-.931.532-.399 1.064-.665 1.729-.798l1.33-.665c1.064-.133 1.862-.798 2.527-1.596 0-.266-.266-.665.266-.798-.133-.399.133-.931-.266-1.33-.399-.266-.665-.798-1.197-1.064-.133-.133-.532-.133-.399-.399-.399-.399-.798-1.064-1.33-1.33.133-.532-.532-.399-.532-.931-.532-.399-.532-1.33-1.064-1.862-.399-.399-.798-.798-1.33-1.064-.266-.399-.931-.133-1.33-.266-1.197 1.197-2.128 2.394-3.192 3.325a4.697 4.697 0 0 1-1.862 1.729c-.399.532-.931.665-1.33 1.197-.665-.266-1.064.266-1.463.399-.532.399-.931.532-1.596.665-.399.399-1.33.133-2.128.266-.133-.399-.931 0-1.197-.399-.399-.399-.665-.798-.532-1.463-.532-.399.266-1.33-.665-1.463 0-.798-.931-.798-1.064-1.596-.532-.532-1.33-1.064-2.261-1.197-1.33-.532-2.261.399-3.99.266-.266.266-.798.399-.532.931-.532.399.399.399 0 .931.266.798 1.33.931.931 2.128-.266.399-.399.532-.399.798-.266.399-.532.532-.931.798-.665-.133-1.064.266-1.463.532-.399.532-1.197.399-1.33.931-.399.266-1.064.532-.931 1.33-.399.532-.133 1.33-.133 1.729.399.133.133.798.665.665.399.266.532.532 1.197.399 1.197.532 3.458-.532 3.99.931-.133.798.532 1.33.266 2.128.133.133.399.399 0 .399-.133 1.197.399 2.793-.399 3.591 0 .399-.532.665-.665 1.197-.399.266-.798.532-1.33.665-.266.399-.665.532-1.197.665h-3.192c-.399.266-.931.399-1.33.532-.665.798-1.729 1.596-1.33 2.66.399 1.33 1.995.532 2.926.798.133.266.399.133.532.133.399.399.931.399 1.064.798.665.532.532 1.596.532 2.527-.399.133 0 .798-.399 1.064 0 1.862-2.128 1.729-2.926 3.192 0 .266 0 .399-.266.532.399 1.33-.532 1.862-1.064 2.527-.399 1.33-1.596 1.862-2.394 2.66-.532.399-.532 1.064-1.197 1.463.133 1.197-1.197 1.463-.532 2.793.798-.266 1.729 0 1.995-.532zm17.155-29.257c.266-.532.532-.665.399-1.33.665-1.064 1.862-1.33 3.059-1.463h1.33c.931.399.665 1.729 1.995 1.463.532 1.197.931 3.192.266 4.389-.399.798-.665 1.862-1.596 2.128-1.33.798-3.458.399-4.655-.399-1.596-.798-.798-3.325-.798-4.788zM473.168 263.181c.665.532 1.33 0 2.128-.133.532-.665 1.463-1.197 1.862-2.128.931-.665 1.197-1.596 1.995-2.394.399-1.197 1.33-1.995 2.128-2.793l.665-1.33c-.399-.665.665-.532.399-1.33.532-.399.399-1.33.931-1.729.133-.665.399-1.33.266-2.261-.399-.133 0-.931-.532-1.064 0-.665.133-1.596-.665-1.862-.266-.399-.266-1.064-.798-1.197v-.266c-.399-.133-.931-.532-1.064-.399-.931.133-1.596.532-2.128 1.33-.399.532 0 1.596-.399 2.261 0 .931-.665 1.33-1.064 2.128-.399.266-.133.798-.266 1.33-.399 0 .133.798-.399.798-.266.399 0 1.33-.532 1.33.266.665-.665.665-.399 1.33-.399.532-.798.798-1.064 1.463-.399.532-.798 1.197-1.197 1.596-.133.399-.532.798-.399 1.33-.266.399-.399.931-.532 1.33 0 .532-.266 1.33.133 1.729.133.266.399.931.931.931zM374.358 228.738c-.133.665.399.931.399 1.33.665.266.399 1.064.798 1.33-.266.665.532.798.266 1.463.532.133 0 .931.532 1.064l.266 3.192c.266 1.197-.399 1.729-.266 2.926-.399.399-.133 1.197-.133 1.862.399.665.133 1.862 0 2.926.266.665-.665.532-.399 1.197-.266.532-.399.798-.532 1.197 0 .399-.266.798.266.931v3.458c-.399.133-.266.532-.266.798-.399.133 0 .665-.399.798.133.798-.399 1.33-.266 2.261-.266.532-.266 1.463 0 2.128 0 .399.266 1.064-.133 1.33 0 .266-.266.665.133.798-.266 1.064.532 1.463.266 2.394.399.399.133 1.33.266 1.862.399.399.133.931.532 1.729.266.399.399.931.399 1.463.532 0 0 .665.399.798-.399.798.798.532.532 1.33.665.399.399 1.33 1.064 1.862a3.205 3.205 0 0 0 1.33 1.33c-.133.399.266.399.399.399-.266.665.665 0 .532.665.399.399.798.665 1.33.931.399.266.798.399 1.197.665.266 0 .399 0 .399-.266.665 0 .931-.532 1.463-.532.399-.665 1.197-1.33 1.33-2.128.399-.532.798-1.197 1.197-1.596.266-.665.532-1.33 1.064-1.729 0-.399 0-1.064.266-1.33.399-.266.399-.665.399-1.33.266-.532.665-.931.798-1.463.399-.532 1.064-1.064 1.064-1.862-.266-.798-.532.266-1.197-.133-.399.532-1.33.532-1.596 1.33-.665 0-1.064.399-1.729.266-.399-.399-.931-.399-1.33-.665-.133-.665-1.064-.266-1.33-.665-.798-.399-1.729-.532-1.995-1.463-.399-.133-.133-.665-.266-1.197-.399-.399 0-1.463-.399-1.995 0-.266-.266-.665.133-.665v-4.256c.399-.532 0-1.596.399-2.128-.266-1.33.266-2.261.399-3.458.665-.266.399-1.064 1.463-1.463.532-.266 1.197-.399 1.862-.532.133-.399.798.133.798-.532.399.133 1.33-.266 1.596.266.266 0 .665.133.532-.266.931.133 1.33-.266 2.261-.266.399.399 1.596-.133 2.128.399.798-.133 1.33.266 2.128.399-.399.665.665.133.399.665.399.399.665 1.064 1.33 1.33 0 .798.931.931 1.064 1.596.798.399 1.064 1.33 1.729 2.128.399.532.798 1.33 1.463 1.596s1.33.798 1.463 1.463c1.33 1.064 2.261 2.261 3.458 3.591.399.266.798.399 1.33.665.798 0 1.064.798 1.729 1.064.532.399 1.33.798 1.463 1.33.266.266.665 0 .532.399.399.399.665 1.064 1.33 1.33.931.665 2.128.931 2.793 1.995.399.266 1.064.399 1.463.665.532.399 1.197.798 1.729 1.197.399 0 .399.399.798.532.931.399 2.261.532 2.66 1.729.399.399.665.798 1.463.665 0 .399.798-.133.665.399.532.266.931.665 1.596.399.798.399 1.995.133 2.527-.532 0-.532.665-.798.665-1.33.798-.266.798-1.33 1.596-1.463.133-.399.798.133 1.064-.399.399 0 .798-.266 1.064.266.399-.266.931-.133 1.064-.532.798 0 .665-.931 1.064-1.463-.399-.266-.399-.532-.532-1.064-.665-.133-.665-1.197-1.463-1.197-.399-.532-.931-.532-1.33-.798-.931.133-1.33-.399-2.128-.399-.532-.399-1.596-.133-2.394-.133-.133-.399-.798 0-.931-.399-.931.266-1.33-.399-2.261-.266-.532-.266-1.064-.931-1.596-1.33-1.995.266-2.793-1.197-4.256-1.729-.399-.266-.399-.798-.798-1.197 0-.266-.133-.532.266-.532.266-.399 0-1.33.665-1.596.532-.532 1.33-.931 1.596-1.596.931-1.064 1.596-2.261 2.66-3.325.665 0 .798-.931 1.33-1.064.798-1.33 1.995-2.394 3.192-3.325.133-.266-.266-.532.266-.665.133-.532-.399-.399-.266-.931-.399-.133-.399-.532-.798-.798-.399-.133-.665-.665-1.197-.665-.266-.399-.399-.399-.665-.665-.931 0-1.33-.665-2.128-1.064-.931-.133-1.33.399-1.995.532-.665.532-.798 1.33-1.463 1.729-.798.532-1.729 1.33-2.261 2.128.133.399-.133 1.064.266 1.197.399 1.064-.532 1.33-.798 2.261-.399.532-1.064.931-1.463 1.463-.399.399-.931.931-1.197 1.463-.133.532-.665.931-.665 1.33-.266.399-.532.266-.665.532a45.737 45.737 0 0 1-2.527-1.197c-.399-.399-.931-.399-1.33-1.064-.931-.266-1.33-1.064-2.128-1.596.133-.665-.532-.399-.665-.798-.399-.133-.665-.399-.931-.399-1.33.133-1.463-1.197-2.261-1.729-.532-.133-1.064-.532-1.463-.798-.665-.399-1.33-1.064-1.596-1.862-.266-.399.266-.532.399-.931.399-.266.931-.399 1.463-.532a2.896 2.896 0 0 1 1.064-.665c.798.399 1.197-.532 1.729-.399.532-.266 1.064-.532 1.463-.665.665.133.931-.532 1.729-.399.133-.399.665 0 .798-.532.532.133 1.064-.266 1.463-.399.266-.532.931 0 1.064-.532.399-.133.798-.532 1.596-.399.133-.399.931 0 1.197-.532 1.463.399 1.995-.532 2.926-1.33 0-.399.266-.532.399-.798 0-.532.532-.798.399-1.33.266-.399.399-.798.665-1.064v-2.66c.399-.266.133-.931.399-1.862.399-.266.133-.931.266-1.33.399-.133-.133-.798.399-1.064.133-.532.133-1.33.665-1.729.133-.532.399-1.197.798-1.729.266-.399.399-.931.665-1.197 0-.665.133-1.064.399-1.463-.133-.798.266-1.463.665-1.995.399-1.729-.532-2.66-1.596-3.458-.532-.399-1.064-.798-1.729-.931-.133-.399-.532-.266-.798-.665-.532-.133-1.064-.399-1.463-1.064-.399-.133-.798-.532-1.463-.399-.399-.399-1.596-.399-2.128 0l-3.591.266c-.532-.133-1.33.133-1.463-.266-.399 0-1.064-.266-1.33.266-.532.133-1.197.399-1.862.399-.665.532-1.862.133-2.793.266-.266.399-.532.665-.931.798-.665-.133-1.197.133-1.729.266 0 .532-.532 0-.665.532-.532-.133-.798.532-1.463.266-.266.399-.931.133-1.33.532-.266.266-.798.133-1.064.399-.399.266-.931.532-1.463.532-.399.266-1.064.266-1.33.532-.665.133-1.197.266-1.596.532-.266.399-.665.532-1.33.532-.399.266-.798.532-1.197.532-.665-.133-.798.665-1.596.532-.399.266-.798.532-1.33.532-.399.665-1.197.532-1.596 1.064-.665-.266-.399.665-1.197.399-.266.532-1.197 0-1.33.399-.532-.399-1.463-.133-2.128-.133 0 .399-.399.133-.532.133-.399.399-.665.399-1.197.532-.665 0-.931.532-1.197 1.197-.133.399-.399 1.064-.532 1.463 0 1.729-.532 3.591.399 4.655zm8.379 3.856c-.133-1.729.399-2.793.665-4.256.665-.665.399-1.862 1.064-2.394.798-2.261 3.059-3.192 5.054-4.256.931-.532 1.729-.532 2.66-1.064-.133-.266.399 0 .399-.266 1.197-.532 2.926-.399 4.123-.798.665.133 1.064-.532 1.862-.399.532-.133 1.064-.532 1.729-.532.532.133.931-.399 1.596-.399.532-.266 1.197-.532 1.862-.665.931.399.931-.532 1.729-.399.266-.399.931.133 1.064-.399 1.197-.133 2.261 0 2.793.665.798.399 1.463.665 1.729 1.596.266.532.266 1.33.665 1.729.133 1.596-.266 3.458.399 4.655.266 1.33-.399 2.261 0 3.458.266 1.197.266 1.995-.133 3.192-.399.266 0 1.064-.532 1.33 0 .532-.399.532-.665.931-.532-.133-.798.399-1.33.532-.798.266-1.862-.532-2.66.133-.399.532-1.33.399-1.729.931-.399.133-.665.266-1.064.665-1.33.532-2.527 1.197-3.99 1.463-.665.399-1.596.532-2.394.665-1.33-.399-1.729.532-2.66.798-1.33.798-3.325.133-4.655.931-1.197.266-2.128.399-3.192.665-.399.133-.798.399-1.33.532-.665.133-1.33.399-2.128.133-.532.133-.399-.665-.798-.665.133-1.064-.266-1.596-.532-2.394.399-1.995.133-4.256.399-6.117zM307.333 271.426c-.133 1.197.931 1.463 1.33 2.261.399.532.798 1.064 1.33 1.463 0 1.064.532 1.33 1.33 1.862.665.266.931 1.197 1.33 1.729 1.064.399 1.064 1.596 2.128 1.862.532.798 1.463 1.064 2.261 1.463.665.133 1.33.399 2.261.266 0-.399.399-.133.665-.266.532-.266.798-.665 1.463-.798.399-.532.931-.798 1.33-1.463.399.133.399-.399.931-.133.399-.532 1.463 0 1.862-.665.665.266.798-.532 1.463-.266.133-.399.665.133.798-.399 1.463 0 1.995-1.463 3.059-2.261.266-.532.399-.931.532-1.33-.133-.665.399-.798.266-1.33.266-.266.665-.532.399-1.064.665-.532.399-1.33 1.064-1.862.266-.532.399-1.064.665-1.463.266-.532 0-1.33.399-1.729v-2.926c-.133-.266-.399-.532-.532-.931-1.064-1.197-2.128-2.128-3.192-3.059-.931 0-1.197-.798-2.128-.798-.266-.399-.798-.133-1.197-.266-.798 0-1.33.399-2.128.266 0 .399-.665 0-.665.532-.399-.133-.798.133-1.197.133-.266.399-.931.133-1.064.665-.399.266-1.064.399-1.463.532-.133.399-.931-.133-1.064.532-.931.133-1.463.665-2.261 1.064-.532 0-.931.266-1.33.532-.266.532-1.197.532-1.197 1.197-.399.532-.532 1.33-1.33 1.463-.266.532-.798.133-1.33.266-.266-.399-.931 0-1.197-.399-.266 0-.399 0-.399.266-.399 0-.798.133-1.197.266-.133.399-.798.133-.931.532-.532.532-1.33.798-1.064 1.862-.399.532-.133 1.33-.266 1.995.798-.266-.266.133.266.399zm9.575-4.521c.665-.399 1.729-.266 2.128-.798.931-.532 2.128-.399 3.059-.665.798.266 1.463.399 2.128 1.064.133.532.399.665.532 1.33.133.399.399.665.532 1.197 0 1.33.399 3.192-.266 4.123-.399 1.064-1.197 1.995-2.261 2.394-.665.266-1.596.532-2.261.532-1.463-.399-3.059-.931-3.99-2.128-.665-1.064-.532-2.394-.931-3.591-.399-1.729.399-2.793 1.33-3.458z"/><path fill="#da1f32" d="M390.716 231.397c.399-.266.399.399.931.133.532-.399 1.33-.133 2.128-.133.399-.532 1.064-.266 1.463-.266.266-.399.665-.133 1.064-.266.133-.532.665 0 .798-.532.399-.133 1.197-.266 2.128 0 .266.399 1.064 0 1.197.399.665.266.931-.266 1.33-.532s.931-.399 1.33-.665c.399-.133.798-.399 1.33-.532 1.197-.399 1.862-1.463 2.66-2.394.133-.798-.133-1.463-.665-1.995-.798.133-1.064-.798-1.729-.798-.133-.399-.931.133-.798-.399-.665.133-1.596-.266-1.995.266-.798-.266-.931.532-1.729.266-.133-.399-.798.133-.798-.399-.399.133-.665-.133-1.064-.266-.133.532-.931-.133-.931.532-.532.133-.798.798-1.463.931-.266 1.064-1.596.399-1.862 1.463-.665.266-1.064 1.064-1.729 1.463-.399.532-1.064.532-1.463 1.064-.532 0-.665.532-.931 1.064-.532.931.266 1.197.798 1.596zM329.01 243.499c-.133.665-1.197 0-1.33.798-.931.133-1.33 1.064-2.128 1.064-.399.266-.665.532-1.33.532-.399.399-.798.532-1.197.665s-.798.532-1.33.532c-.399.798-1.33 1.064-2.128 1.463-.931-.133-1.463.399-2.394.266 0 .266-.399.133-.532.133-.266.798-1.33.532-1.729 1.197-.798-.133-1.33.399-1.995.532-1.33.532-2.394 1.33-3.458 2.394.133.399-.399.532-.399.798.133.399.665.399.931.665.399 0 1.064.266 1.33-.133h2.793c.399-.532 1.197 0 1.33-.532.665.399 1.596.133 2.394.266.399-.532.931-.665 1.33-1.064 1.064.399 1.064-.665 1.862-.665 0-.532.798 0 .931-.532 1.729.532 2.261-.931 3.857-.798 0-.399.665 0 .665-.532.665.133 1.064-.532 1.463-.532.133-.532 1.064-.266 1.064-.798.665.266.532-.532 1.064-.532.532-.266 1.064-.532 1.463-.665 1.197.266 1.862-.266 2.926-.399.399-.399.798-.532 1.33-.665.399-.266.931-.399 1.33-.532.399-.266 1.33-.133 1.729-.532.665.133 1.197-.266 1.729-.266.399-.266.798-.532 1.33-.665.665-.133 1.197.399 1.596.665 0 1.463 1.064 2.394 2.128 3.059 0 .266 0 .399.266.399-.266.798.532 1.064.266 1.729.399.266-.133.931.399 1.064-.266.665.532.798.266 1.596.399.266 0 1.064.532 1.33 0 .532.133 1.197.399 1.729v3.591c-.266.532-.266 1.729 0 2.261l-.133 3.059c0 .798-.399 1.33-.266 2.261-.399.266 0 1.064-.399 1.197-.399.532-.133 1.33-.532 1.729-.266 1.197-.798 1.995-1.463 2.793-.931 1.197-2.128 1.995-3.192 3.192-.399-.133-.532.266-.931.399-.399.266-.665.266-1.064.532-.798-.133-.798.798-1.33 1.064-.266.798.399 1.064.532 1.596.399 0 .532.399.931.399.532.133 1.197-.133 1.729-.266.266-.532 1.197-.133 1.729-.266.133.399.532.399.665.665.665.266.931.931 1.463 1.463.399.133.798 0 1.064.399 1.064-.266 1.596.399 2.66.266.399-.665 1.33-1.197 1.463-1.995.399-.399.266-1.064.266-1.596.532 0 .266-.665.399-1.064.399 0-.133-.665.399-.665 0-1.064.665-1.596 1.064-2.394-.133-.399.133-.665.266-1.064.399-.266.133-.931.266-1.33.399 0-.133-.665.399-.665.133-1.862-.133-3.99.266-5.718.399-.532.133-1.33.266-2.128-.133-.399-.532-.665-.532-1.33.399-.399 0-1.33.399-1.729-.266-.665.399-.931.266-1.729.532 0 0-.931.399-1.197.133-1.33-.266-3.192.266-4.389.399-.532-.133-1.862.399-2.527-.399-.399.133-1.33-.399-1.729v-4.389c-.399-.532.133-1.729-.665-2.128 0-.665-.532-1.064-.665-1.596-.532.133-.399-.532-.931-.399-.399-.399-1.064-.665-1.729-.798-.399-.266-.665-.399-.931-.532-1.064-.266-1.596-.399-1.862-.399-.133-.399-.931 0-1.064-.399-.532.133-1.33-.133-1.596.266-.532-.133-1.33.133-1.596-.266-.399-.133-.798.266-1.064-.266-.399.133-.798-.133-1.064.266-.532.133-1.064.133-1.463.532-.665-.133-1.197.133-1.729.133 0 .532-.665.133-.798.532-.665-.266-.798.532-1.463.133-.399-.532-.532.399-1.064 0-.399.266-.798.532-1.33.665-.399.266-.931.399-1.463.532-.798.399-1.596.798-2.527 1.33-.266.399-.665.399-1.064.665z"/><path fill="#da1f32" d="M290.444 278.874c.399 0 0 .665.399.399.665.798 2.261.399 3.192.399.266-.133.266-.532.665-.532.399-.532 1.197-.532 1.463-1.33.133-.532.399-.798.665-1.197.266-.266.133-.798.399-1.064.399-.266.133-.931.266-1.33.532 0 0-.532.399-.665 0-.532.399-.931.665-1.33.133-.399.532-.665.399-1.33.399-.133 0-.798.399-1.064-.133-.931.133-1.463.532-2.128-.399-1.064.798-1.064.399-1.995.399-.133.399-.665.399-1.197.399-.266.133-.798.266-1.197.399-.133-.133-.665.399-.798-.266-.665.399-.798.266-1.596.399-.399 0-1.33.399-1.596-.133-.532 0-1.33.266-1.729.399-.532-.133-1.33.399-1.862-.266-.532.399-.665.266-1.33.532-.798-.399-1.463 0-2.527-.399-.266 0-1.197-.532-1.33.266-1.197-.399-2.793.399-3.591 0-.532.266-.931.399-1.33.665-.798 1.33-1.33 2.261-1.862.665-.532 1.33-1.064 2.261-1.463.399-.532.931-.931 1.596-1.064.266-.399.665-.399.798-.665.665-.133 1.197-.532 1.729-.532.399-.665 1.33-.266 1.729-.931.399-.266 1.33-.133 1.596-.532.665-.133 1.197-.532 1.729-.665.665-.133.931-.665 1.596-.931.133-.399.532-.266.798-.532.399-.266.931-.532 1.33-.532.532-.266 1.197-.399 1.862-.532.399-.266.798-.532 1.33-.532.399-.399 1.064-.133 1.596-.133 0-.399.665-.133.798-.399 1.197.133.798-1.33 1.729-1.463-.133-.532.133-.931.399-1.33-.266-.798.399-1.197.266-1.995.399-.133-.133-.665.399-.798 0-.532.665-.931.399-1.729.399-.133 0-.665.399-.798.133-.399.266-1.33.399-1.729.399-.532.399-1.064.665-1.463-.399-.931.798-.931.399-1.995.399-.399.399-.931.399-1.463.399-.266.266-.931.266-1.33-.266 0-.266-.399-.266-.399-.798-.399-.931-1.33-1.463-1.729-.266 0-.399 0-.399-.266-.931.133-1.33-.399-1.995-.399-.399-.133-.532-.532-1.064-.665-.798.133-1.33-.399-2.128-.266 0-.399-.399-.133-.532-.133-.399-.399-1.33-.399-1.596 0-.665 0-1.197.532-1.862.532-.399.532-1.729 0-2.261.532-.532 0-.931.266-1.33.532-.399.133-.798.532-1.064.798-.798 0-1.33.665-1.995 1.064-.399.266-.798.399-1.197.532-.399.532-1.33.532-1.596 1.33-.399.133-.665.532-1.197.532-.399.665-1.064.532-1.596.931-.798-.266-1.33.266-1.995.532-1.064.532-1.995 1.197-2.926 1.729-1.064.266-1.729 1.197-2.394 1.995-.133.399-.532.665-.399 1.33.266.399.266 1.064.665 1.33.399.798 1.33.532 2.261.532.133-.399.665-.133 1.064-.133.399-.532.931-.266 1.463-.266 0-.399.532-.133.798-.266.133-.399.798.133.798-.532.399-.266 1.33-.266 1.729-.532.665-.532 1.33-.665 2.128-1.064.399-.266.798-.399 1.197-.532.798.133 1.197-.266 1.596-.532.665-.798 2.128-.931 2.926-1.729.399-.266 1.197-.266 1.729 0 .266.399.931.532.931 1.197.399.532 1.064.931 1.064 1.596.399.133 0 .798.532.931-.133.665.399 1.729-.399 1.995.399 1.33-1.33 1.064-1.33 2.261-.532.133-.665.931-1.33.931-.399.665-1.197.665-1.596 1.33-.532.133-1.197.133-1.596.399-.665.532-1.463.931-2.128 1.463-.665.133-.931.665-1.596.931-.133.399-.798-.133-.931.399-1.463 0-3.192.266-4.522-.266-.798-.798-1.862-1.596-2.527-2.527-.399.266-.399-.399-.665-.266-.266-.399-.931.133-1.064-.399-.399-.133-.665.133-1.064.266-.798.399-1.33.665-2.128 1.33-1.064.133-.798 1.33-1.463 1.729.266.798-.399 1.33-.532 1.729.266.665-.399.798-.266 1.463-.399.399 0 1.197-.399 1.463.266.266.133.798.532 1.064v7.314c.399.399.133 1.33.266 1.995-.399.266-.266.798-.266 1.197-.399.532-.133 1.463-.266 2.261-.399.532 0 1.33-.399 1.862.266 1.463-.399 2.261-.133 3.724-.399.133-.266.532-.266.798-.399.133 0 .665-.399.798 0 .665-.665 1.197-.399 1.995-.399 0 0 .665-.532.532.266.931-.399 1.197-.133 1.995-.266.399-.399.798-.665 1.33.133.532-.399.931-.266 1.463-.399.532-.133 1.33-.133 1.995-.399 0-.266.532-.266.665-.399.399-.133 1.064-.266 1.596-.399.133 0 .798-.399.931-.266 1.064-1.596 1.33-1.729 2.394-.399.266-.133.798-.133 1.197-.399 0 .532.133.266.798zM538.863 226.61c.133 1.197.532 2.128 1.463 2.793.532-.133 1.064.399 1.33.798.931.399.665 1.596 2.128 2.261 1.064.266 1.463-.266 2.128-.665.399 0 .665-.532 1.197-.665.133-.532.532-.798.399-1.463.399-.133-.133-.665.399-.798.133-.931-.133-1.596-.532-2.261-.133-.798-.798-1.197-1.33-1.463-.532.133-.665-.399-1.33-.266 0-.399-.665 0-.665-.399-.399 0-.665-.399-1.064-.532-.266-.133-.532.133-.665-.266-.399.133-1.064-.133-1.33.266-.798-.133-1.33.133-2.128 1.064-.133.399-.399 1.33 0 1.596zM388.721 207.726c.532 0 .931.399 1.33.798-.399.665.399.931.133 1.729.399.133 0 .798.532.931-.133 1.064.665 1.33 1.197 2.128.266 0 .399 0 .399.266.399.133.798.399 1.064.798.399-.266.266.532.665.266.798.665 1.197-.399 1.729-.665-.266-.532.399-.665.399-1.197.399-.532.931-.798.798-1.463.399-.266.399-.665.665-.798.133-.399.532-.798.399-1.463.399-.266-.133-1.064.399-1.33.133-.931 0-2.128-.266-2.926-.399-.266-.532-.798-.931-1.33-.399-.266-.931-.399-1.463-.399-.399-.266-.931-.399-1.33-.665-.798-.133-.931-.798-1.862-.798-.266-.399-.798-.266-1.197-.266-.399.266-1.064.399-1.33.665-1.064-.266-1.596.266-2.394.399-.399.399-.399.798-.665 1.33-.399.532-.399 1.596 0 2.261 0 1.064 1.064 1.197 1.729 1.729zM514.793 245.76c-.399-.399-.665-.399-1.197-.399-.399-.665-1.064-.798-1.463-1.33-.931 0-1.33-.399-2.261-.266-.399.399-1.064.399-1.064.931-.399.266-.133.798-.266 1.197.266.399.532.931.532 1.33.665.266.399 1.197.931 1.463.532.532 1.33 1.197 1.729 1.995.931.399.532 1.596 1.33 1.995-.133.931.931.798.931 1.729.798.931 1.596 1.995 2.527 2.926.532-.133.532.399.931.532 1.596.133 2.527-.931 3.591-1.862.133-.399.399-.798.532-1.33-.133-1.064.133-2.261-.266-3.192-.266-.665-.931-1.064-1.33-1.729-.931-.532-1.463-1.463-1.862-2.527-.665-.399-1.197-1.33-1.995-1.463 0-.532-.798-.133-1.33 0zM539.395 258.66c1.33.133 1.995-.931 2.66-1.729 1.197-.532 2.261-1.463 2.793-2.793.266-.532.665-.798.798-1.33.532-.399.532-1.064.931-1.463.399-.532.798-.931 1.064-1.463.399-.266.399-.931.798-1.197 0-.399.133-.931.266-1.197.399-.266 0-1.197.665-1.33.133-.399.399-1.064.532-1.463.798-.266.266-1.197.399-1.729.532-.399-.399-.399 0-1.064-.133-.532-.798-.266-1.33-.399-.399.133-.399.532-.798.532-.665 1.862-3.059.931-3.724 2.793-.399 1.33-1.596 2.261-2.527 3.325-.665.665-1.463 1.463-2.128 1.995-1.197 1.064-2.128 2.261-3.059 3.325 0 .266 0 .399-.266.399 0 1.197.931 1.596.798 2.793.931.532 1.197 1.33 2.128 1.995zM447.767 233.525c-.266.665.532.532.399 1.33.399.266-.133 1.064.532 1.197.266-.133.798.266.798-.266.532 0 1.064-.266 1.463-.532.665.133.931-.532 1.463-.532.266.266.798 0 .931.399.133 1.463 1.463 2.128 2.261 3.192-.266 1.197.532 1.862.266 3.059.399.532.133 1.463.133 2.66-.133.532.532.798 0 1.064 0 .266 0 .399.266.532-.266 1.33.532 2.261.266 3.591-.399.266-.133.931-.266 1.33-.399.532-.133 1.463-.266 2.261.399.399 0 1.33.532 1.729-.266 1.197.532 1.596.266 2.66-.399.532-.133 1.197-.266 1.729.399.133 0 .798.532 1.064-.266.665.532.798.399 1.463 1.064 1.197 2.261 2.261 4.256 1.729-.266-.399.399-.399.266-.665.798-.532.133-1.862.665-2.527v-13.166c-.399-.133 0-.665-.399-.798.133-1.463-.266-3.192.266-4.389.665-.532.266-1.995.266-3.059-.399-.266.133-1.064-.399-1.33 0-.532-.399-.931-.266-1.463-.266-.133-.266-.266-.266-.399-.399-.266 0-1.197-.399-1.33-.399-.399-.931-.399-1.33-.798-.399-.266-.798-.399-1.33-.665-.399-.399-.931-.665-1.33-1.064-.798.266-1.33-.266-1.862-.399 0-.266-.133-.532.266-.532-.399-.798.399-1.064.133-1.729.532-1.064 1.33-1.995 1.995-2.926 1.197-2.66 4.123-3.857 5.585-6.25.665-.532 1.33-1.197 1.729-1.995.399-.532.798-.931 1.064-1.463.798-.133 0-1.197.931-1.197.399-1.33 1.862-1.197 2.527-2.394-.133-.266 0-.399.266-.399-.133-.532.266-1.33-.266-1.729-.399-.399-.399-.931-.798-1.197-.399-.532-.665-1.064-.931-1.729-.399-.532-.665-1.33-1.33-1.596-.532.266-.665-.399-1.33-.266-.266-.399-1.197-.399-1.33 0-.931.399-1.596 1.197-1.862 1.995-.665.798-1.064 1.729-1.463 2.66-.399.399-.399.798-.665 1.33-.399.266-.133.798-.266 1.33-.399.133-.133.532-.133.798-.399.532-.532 1.064-.931 1.463-.665.798-1.862 1.33-1.862 2.527-.266.532-.532.665-.399 1.33-.399.532-.665 1.197-1.33 1.463-.399.798-1.33.798-1.862 1.463-.133.399-.399.931-.532 1.33-.399.532-.532.931-.931 1.33-.133.931-1.064 1.064-1.064 1.995-.665.532-.931 1.463-1.729 2.128-.399.399-.399 1.197-1.064 1.33 0 .665-.665 1.197-.399 1.995.133-.133-.399.931.133 1.33z"/><path fill="#da1f32" d="M476.226 239.909c.665-.133 1.729.266 2.261-.266 1.197-.133 2.793.399 3.591-.399.931-.133 2.128.133 2.527-.532.665.266.798-.399 1.33-.133.532-.532 1.596 0 2.128-.532 1.197 0 2.394-.266 2.926.931-.133.532.532.399.532.931.665.133 0 1.064.665 1.197-.133.532.133 1.33-.399 1.596.266 1.197-.399 1.596-.266 2.793.399.798.266 1.862.266 2.793-.399.133-.133.399-.266.665-.399.399-.133 1.064-.133 1.596.399.665.133 1.862 0 2.926-.133 1.197.133 2.527-.266 3.458-.399.266-.133.931-.665 1.064-.133.399-.399.931-.532 1.33-.665.266-.399.931-.798 1.33-.133.532.133 1.064.399 1.463-.266.532.399.665.266 1.33.399.266.133.931.266 1.33.399.266-.266 1.33.532 1.33-.133.399.665.399.532.931.532.931 1.596 1.064 2.261 1.995.266 0 .532-.133.665.266 1.197-.133 2.128-.532 2.66-1.596.532-.399.532-1.064.798-1.463.532-.399.399-1.33.931-1.596-.133-.532.266-.931.399-1.33-.399-.532.399-.665.133-1.33.399-.399 0-1.197.399-1.463-.133-.399.133-1.197-.266-1.33l.266-3.857-.266-4.788c.133-3.192-.133-6.782.133-9.841.266-.399.399-1.064.532-1.33-.133-.665.399-1.064.532-1.463.133-.931 1.064-1.33 1.729-1.862.532.133.798-.399 1.463-.266.665.399 1.862.133 2.926 0 .532.133 1.33-.133 1.729.266.665-.266.798.399 1.463.266.399.266.931.399 1.463.399.399.399 1.33.133 1.729 0 .399-.399 1.197-.133 1.729-.133.399-.532 1.33 0 1.596-.532.931.133 1.33-.665 2.128-1.197.399-1.463-1.33-1.33-1.596-2.394-.399-.266-.532-.931-1.197-.665-.266-.399-1.064 0-1.33-.399-.931.266-1.33-.399-2.128-.266-.399.532-1.33 0-1.596.532-.931-.266-1.33.532-2.128.266-.532.532-1.197-.266-1.995 0-.266.399-.798.133-1.33.266-.399.133-.798.399-1.197.532-.665-.399-.399.532-1.197.266-.399-.399-1.064-.266-1.33-.665-.399-.133-.931-.399-1.33-.532-.665.133-.931-.532-1.33-.931 0-.399-.665-.399-.532-1.064-.532-.266-.532-1.064-1.197-1.33-.133-.532-.532-.931-.798-1.463-.665-.133-1.064-.798-1.463-1.33-.266-.532.399-.532.399-1.064.665.266.798-.532 1.463-.399.399-.532 1.197-.532 1.729-.665.133-.399.798-.133 1.064-.532.399-.665 1.197-.665 1.596-1.33.798.399 1.064-.399 1.862-.133.399-.532 1.197-.266 1.862-.266.532-.532 1.064-1.064 1.33-1.596 0-.399.399-.665.532-1.064s.532-.665.665-1.197c.798-.266.798-1.33 1.463-1.729.399-.798.931-1.596 1.596-2.128.798-.931 1.729-1.995 2.793-2.926-.133-.399.266-.532.399-.931 0-.931-.133-1.596-.532-2.261-.266-.532-.399-1.064-.665-1.463-.532.266 0-.665-.665-.399-.266-.266-.665-.133-1.064-.399-.399-.399-1.064-.399-1.33-.665-.665.133-.931-.399-1.463-.665-.399-.133-.798-.399-1.197-.532a5.905 5.905 0 0 0-1.463-1.064c-.266-.399-.931-.133-1.33-.266-.133.399-.798 0-1.064.532-.665-.133-1.463-.266-2.394-.266-.133.399-.665.133-1.064.266-.399.532-1.33 0-1.596.399-1.596.133-3.325-.133-4.788.266l-1.33.665c-.665 0-1.064.133-1.463.399-.532-.266-.665.532-1.33.266-.266.532-1.064 0-1.33.532-.665 0-.931.532-1.463.665h-3.458c-.133.399-.665.133-1.064.133-.133.266-.399.266-.399.266l-1.33.665c-.665-.266-1.064.399-1.463.532-.931.133-1.197.798-1.596 1.463 0 .399 0 1.064.266 1.33.798.532.931 1.33 1.33 2.128 0 .399.266.798.266 1.197.399.133 0 .798.399.931-.133.665.399.798.532 1.33.532.399.532 1.197 1.064 1.463.133.532.532.798.532 1.463.399 0 .133.798.665.532.532.798 1.463 1.064 2.128 1.596.266.399 1.064.399.798 1.197.665.665 1.33 1.33 1.729 2.128.798.266 1.33 1.064 1.995 1.596.399.266 1.064.399 1.463.665.266.399.665.399.931.665.266.532.532.931.798 1.463 0 .399.266 1.33-.133 1.463-.399 1.729-2.128 2.394-3.059 3.591-.399-.133-.399.266-.532.399l-6.25-.133a5.507 5.507 0 0 0-3.059.532c-.665-.133-.798.532-1.463.532a2.247 2.247 0 0 1-1.33.399c-.665.532-1.064 1.064-1.33 1.596-.133.798.133 1.33.532 1.862 0 .931 1.064.798 1.463 1.197zm15.028-21.012c-.665-.399-2.128.133-2.527-.665-.399-.399-1.33-.532-1.463-1.33-.133-.133-.399-.266-.399-.532-1.064-.931-1.729-1.862-2.527-2.926-.133-.665-.931-.798-1.064-1.463-.399-.399-.399-1.862 0-2.394.266-.532.665-.665 1.197-.931.399-.532 1.064-.266 1.596-.399.399.399 1.33.266 1.862.266.798 0 1.064.931 1.995.665.266.399.798.133 1.33.133.133-.399.665-.133 1.197-.133.399.266 1.064.266 1.463 0 1.33 0 2.66-.133 3.857-.399.399-.133 1.197-.266 1.729-.399 0-.399.532 0 .665-.399.266-.133.665-.266.798-.532.399-.266 1.197-.266 1.463-.798.399-.133.798-.266 1.33-.266l.133.399c0 .399.532.931.133 1.33-.266.399-.266 1.33-.399 1.729-.532.931.266 2.261-.133 3.192-.266.931-.798 1.33-1.33 2.128-.399 0-.665.532-1.197.532-.798.532-1.197 1.463-2.128 1.862-.665.133-.931 1.064-1.862.798-.266.266-.665.133-1.064.133-1.729-.133-3.325 1.064-4.655.399z"/><path fill="#d2a42b" d="M809.758 240.175l2.793-3.192-72.079-92.426H538.731c-25.002 0-46.014-24.603-46.279-24.869l-3.857-4.522-3.724 4.522c-.266.266-21.145 24.869-46.279 24.869H236.851l-72.079 92.426 2.793 3.192c.133.133 17.022 19.549 21.943 36.039 6.516 21.677 8.378 51.2 5.054 81.255-1.064 10.373-2.793 21.012-4.655 32.183-4.522 27.927-9.575 59.445-9.575 108.251 0 51.732 6.782 85.511 21.145 137.642 16.49 60.243 62.504 133.652 100.804 179.665 70.217 84.447 150.94 124.875 151.871 125.274l2.793 1.33 31.784-24.736 31.784 24.736 2.793-1.33c.798-.399 81.521-40.827 151.871-125.274 38.3-46.014 84.314-119.422 100.804-179.665 14.23-52.131 21.145-86.043 21.145-137.642 0-48.806-5.054-80.457-9.575-108.251-1.729-11.171-3.458-21.677-4.655-32.183-3.192-30.055-1.33-59.578 5.054-81.255 4.788-16.49 21.677-35.774 21.81-36.039zm-74.207-85.511l13.166 16.889-27.129 47.077c-6.915-6.649-16.357-11.836-28.459-15.559-9.043-2.793-23.805-5.718-40.029-8.511l14.496-40.029h67.956zm-157.589 0h79.127l-13.964 38.433c-14.23-2.261-28.858-4.256-41.758-5.718-6.782-.798-16.889-1.995-28.725-3.059l5.319-29.656zm-84.314-19.682c9.575 8.378 25.932 19.682 45.083 19.682h29.124l-5.054 28.592c-21.81-1.995-47.343-3.99-69.153-4.256v-44.019zm-5.054 54.126c37.768 0 90.564 5.718 111.576 8.245 30.72 3.591 72.079 9.974 90.165 15.559 19.815 5.984 30.853 15.825 34.577 30.986 8.112 32.582-19.549 50.801-20.746 51.599l-4.655 3.059 3.458 4.389c.133.133 9.442 12.368 8.91 31.385-.399 12.501-3.059 27.129-20.347 41.891-7.979 6.782-14.496 9.442-14.496 9.575l-3.458 1.463.399 3.724c0 .133 1.064 11.969-7.314 19.815-7.314 6.915-15.958 10.373-36.172 5.851-4.921-1.064-48.54-10.772-71.414-13.698-16.623-2.128-54.392-4.123-70.35-4.123-16.091 0-53.727 2.128-70.35 4.123-22.874 2.926-66.494 12.634-71.414 13.698-20.214 4.522-28.725 1.064-36.172-5.851-8.245-7.846-7.314-19.682-7.314-19.815l.399-3.724-3.458-1.463s-6.516-2.66-14.496-9.575c-17.288-14.762-19.948-29.39-20.347-41.891-.532-19.017 8.777-31.252 8.91-31.385l3.458-4.389-4.788-3.059c-.266-.133-28.991-18.884-20.746-51.599 3.724-15.161 14.762-25.002 34.577-30.986 17.953-5.452 59.312-11.836 90.165-15.559 20.879-2.527 73.808-8.245 111.443-8.245zm284.194 169.425c.931 8.777 2.261 17.421 3.724 26.464L647.648 493.514c-5.984-6.782-12.368-13.166-19.017-19.15l60.376-72.212c23.273-5.984 40.029-21.278 46.944-43.221 1.596-5.319 2.66-10.905 2.926-16.357l33.912-40.561c-2.128 17.421-2.128 36.97 0 56.519zm-157.191 64.898c6.516 1.463 11.304 2.394 12.634 2.793 10.506 2.394 19.017 2.926 26.331 1.463l-33.646 40.295c-7.048-5.585-14.363-10.905-22.076-15.559l16.756-28.991zm-25.401 23.937c-7.846-4.389-15.958-8.112-24.47-11.437l7.58-20.879c10.373 1.862 22.076 4.123 31.917 6.117l-15.028 26.198zm119.822-63.966c-6.516 5.186-15.028 9.442-26.198 11.836 0-.665.133-1.33.133-1.862 3.192-1.596 8.245-4.655 14.097-9.708 2.394-1.995 4.389-3.99 6.383-5.984l5.585 5.718zm-.399-11.836a60.571 60.571 0 0 0 8.644-15.825l9.309 3.192c-1.995 5.718-5.585 12.634-11.57 19.15l-6.383-6.516zm19.948-20.48l-9.176-3.192c.931-4.788 1.33-9.309 1.463-13.432.133-3.591-.133-7.048-.532-10.24l7.846-1.463c2.128 9.043 2.394 18.884.399 28.326zm-9.841-34.71c-1.729-6.782-4.256-12.102-6.25-15.426a43.666 43.666 0 0 0 2.793-2.527c4.389 4.788 7.846 10.373 10.24 16.623l-6.782 1.33zm-156.393 97.081l-6.915 19.017c-8.511-2.926-17.155-5.319-26.065-7.048l2.66-15.028c9.708.665 18.618 1.463 24.736 2.261 1.729.266 3.591.532 5.585.798zm-40.428-3.591l-2.394 13.831c-8.777-1.33-17.82-2.128-26.863-2.261v-12.767c7.846.133 18.485.532 29.257 1.197zm-39.231-1.197v12.767c-9.043.266-18.086.931-26.863 2.261l-2.394-13.831c10.639-.665 21.411-1.064 29.257-1.197zm-36.705 16.756c-8.91 1.729-17.554 4.123-26.065 7.048l-6.915-19.017c1.995-.266 3.857-.532 5.585-.798 6.117-.798 15.028-1.596 24.736-2.261l2.66 15.028zM204.667 302.014l33.912 40.561c.399 5.585 1.33 11.038 2.926 16.357 6.782 21.943 23.672 37.236 46.944 43.221l60.376 72.212c-6.782 5.984-13.033 12.368-19.017 19.15l-128.864-108.65c1.463-9.043 2.793-17.82 3.724-26.464 1.862-19.416 1.862-38.965 0-56.386zm56.652 75.935c-5.984-6.516-9.442-13.432-11.57-19.15l9.309-3.192c1.862 5.186 4.522 10.506 8.644 15.825l-6.383 6.516zm11.57-.266c1.862 1.995 3.99 3.99 6.383 5.984 5.851 4.921 10.905 7.979 14.097 9.708 0 .532 0 1.197.133 1.862-11.304-2.261-19.815-6.649-26.198-11.836l5.585-5.718zm-15.426-61.307l-6.915-1.33c2.394-6.25 5.851-11.836 10.24-16.623 1.064.931 1.995 1.862 2.793 2.527-1.862 3.325-4.256 8.644-6.117 15.426zM256 324.222c-.399 3.192-.665 6.516-.532 10.24.133 4.123.532 8.644 1.463 13.432l-9.176 3.192c-1.995-9.442-1.729-19.283.532-28.326l7.713 1.463zm66.626 103.464c2.66.532 5.452.798 8.378.798 5.319 0 11.171-.798 17.953-2.261 1.463-.266 6.117-1.33 12.767-2.793l16.623 28.991c-7.713 4.788-15.028 9.974-22.076 15.559l-33.646-40.295zm49.339-6.383c9.841-1.995 21.544-4.389 31.917-6.117l7.58 20.879c-8.378 3.325-16.623 7.048-24.47 11.437l-15.028-26.198zm66.626-266.639c19.15 0 35.508-11.304 45.083-19.682v44.019c-21.677.266-47.343 2.128-69.02 4.123l-5.054-28.592h28.991zm-39.231 0l5.186 29.523c-11.836 1.197-21.943 2.261-28.725 3.059-12.9 1.463-27.528 3.591-41.758 5.718l-13.964-38.433h79.26zm-157.723 0h67.823l14.496 40.029c-16.224 2.793-30.986 5.718-40.029 8.511-12.102 3.591-21.544 8.777-28.459 15.559l-27.129-47.077 13.299-17.022zm-63.966 82.053l44.152-56.652 26.996 46.944c-2.793 4.389-4.788 9.176-6.117 14.363-5.851 23.273 3.724 40.694 12.634 51.2-8.644 9.309-14.23 21.81-16.224 35.242l-37.768-45.216a92.408 92.408 0 0 0-2.394-9.176c-4.256-14.629-15.958-30.055-21.278-36.704zm21.278 159.85l124.343 104.794c-5.585 7.048-10.772 14.363-15.559 22.076l-115.965-67.291c1.596-23.539 4.389-42.423 7.181-59.578zm-8.512 101.336c0-11.038.266-21.012.665-30.454l111.576 64.765a227.674 227.674 0 0 0-11.437 24.47L190.836 519.98a584.357 584.357 0 0 1-.399-22.076zm1.064 32.981l96.283 35.242c-2.926 8.511-5.186 17.288-6.915 26.198l-83.25-14.762c-2.926-15.559-5.054-30.454-6.117-46.678zm8.378 57.318l79.26 14.097c-1.33 8.777-2.128 17.82-2.261 26.996h-66.626c-4.256-15.028-7.713-28.459-10.373-41.093zm13.166 51.067h63.701a226.202 226.202 0 0 0 2.394 26.996l-52.53 9.309c-5.319-12.368-10.107-24.603-13.565-36.305zm17.953 45.747l50.003-8.91c1.729 8.91 4.123 17.687 6.915 26.198l-40.428 14.762c-5.984-10.639-11.57-21.411-16.49-32.05zm21.544 40.96l38.699-14.23c3.325 8.511 7.181 16.623 11.437 24.47l-32.316 18.751a703.393 703.393 0 0 1-17.82-28.991zm23.406 37.369l31.651-18.352a213.42 213.42 0 0 0 15.426 22.209l-27.794 23.406c-6.25-8.644-12.767-17.687-19.283-27.262zm34.045 45.482a354.566 354.566 0 0 1-8.378-10.373l28.06-23.672c5.984 6.782 12.235 13.166 19.017 19.15l-25.268 30.321a385.651 385.651 0 0 1-13.432-15.426zm20.214 22.874l26.065-31.252c7.048 5.585 14.363 10.772 22.076 15.559l-23.273 40.428c-8.112-7.58-16.49-15.825-24.869-24.736zm32.449 31.651l24.337-42.29c7.846 4.389 15.958 8.112 24.47 11.437l-19.948 54.924a460.65 460.65 0 0 1-28.858-24.071zm37.236 30.454l21.012-57.849c8.511 2.926 17.155 5.319 26.065 7.048l-13.033 74.207c-9.442-5.851-21.012-13.698-34.045-23.406zm83.782 14.628l-27.927 21.677c-2.527-1.33-6.915-3.724-12.634-7.181l13.698-78.063c8.777 1.33 17.82 2.128 26.863 2.261v61.307zM286.587 634.215c0-111.842 90.564-202.938 202.007-202.938s202.007 90.963 202.007 202.938c0 111.842-90.564 202.938-202.007 202.938s-202.007-91.096-202.007-202.938zm492.983-56.652l-83.117 14.762c-1.729-8.91-4.123-17.687-7.048-26.198l96.416-35.242c-1.064 16.224-3.192 31.119-6.25 46.678zm7.314-79.66c0 7.713-.133 15.028-.532 22.076l-100.405 36.704c-3.325-8.511-7.181-16.623-11.437-24.47l111.576-64.765c.532 9.442.798 19.549.798 30.454zM521.575 929.978l-27.927-21.677v-61.174c9.043-.266 18.086-.931 26.863-2.261l13.698 78.063c-5.718 3.325-10.107 5.718-12.634 7.048zm21.81-12.767l-13.033-74.207c8.91-1.729 17.554-4.123 26.065-7.048l21.012 57.849c-13.033 9.708-24.603 17.554-34.045 23.406zm42.29-29.789l-19.948-54.924c8.378-3.325 16.623-7.048 24.47-11.437l24.337 42.29a460.997 460.997 0 0 1-28.858 24.071zm36.438-30.986l-23.273-40.428c7.713-4.788 15.028-9.974 22.076-15.559l26.065 31.252c-8.245 8.777-16.623 17.155-24.869 24.736zm45.216-47.609a384.952 384.952 0 0 1-13.432 15.426l-25.268-30.188c6.782-5.984 13.166-12.368 19.017-19.15l28.06 23.672c-2.793 3.458-5.585 6.915-8.378 10.24zm14.495-18.352l-27.661-23.406a213.267 213.267 0 0 0 15.426-22.209l31.651 18.352c-6.383 9.708-12.9 18.751-19.416 27.262zm25.002-35.508l-32.183-18.618a227.674 227.674 0 0 0 11.437-24.47l38.699 14.23c-5.718 9.708-11.703 19.416-17.953 28.858zm23.007-37.901l-40.295-14.762c2.926-8.511 5.186-17.288 7.048-26.198l49.87 8.777c-5.186 10.772-10.639 21.544-16.623 32.183zm20.879-41.492l-52.397-9.309c1.33-8.777 2.128-17.82 2.394-26.996h63.701c-3.724 11.703-8.378 23.938-13.698 36.305zm16.49-46.412h-66.626c-.266-9.176-1.064-18.219-2.394-26.996l79.26-14.097c-2.793 12.767-6.117 26.198-10.24 41.093zm18.352-172.884l-115.965 67.291a213.42 213.42 0 0 0-15.426-22.209l124.21-104.661c2.66 17.022 5.585 36.039 7.181 59.578zm-7.314-182.99a92.408 92.408 0 0 0-2.394 9.176l-37.768 45.216c-1.995-13.299-7.447-25.799-16.224-35.242 8.91-10.506 18.485-27.794 12.634-51.2-1.33-5.319-3.325-10.107-6.117-14.363l26.996-46.944 44.152 56.652c-5.186 6.782-16.889 22.209-21.278 36.704z"/><path fill="#d2a42b" d="M965.752 232.328l-68.621-89.899c-5.718-7.58-15.028-8.91-21.943-8.777 1.995-6.649 3.059-15.958-2.793-23.539l-68.621-89.899C788.082-.399 766.272-5.718 746.856 6.117c-8.91 5.452-14.762 15.028-15.958 25.799-.798 7.314.798 14.496 4.389 20.879a52.282 52.282 0 0 1-6.383-.798c-11.969-2.128-22.342-7.181-34.577-16.756l-2.926-2.261-3.059 2.128c-10.373 7.314-18.751 9.841-26.198 11.703-6.383 1.463-12.767 2.128-18.219 1.862a26.256 26.256 0 0 0 .665-9.708c-1.995-17.687-15.559-28.725-35.641-28.725H368.375c-20.081 0-33.646 11.038-35.641 28.725a26.256 26.256 0 0 0 .665 9.708c-5.585.266-11.836-.399-18.219-1.862-7.58-1.596-15.958-4.256-26.198-11.57l-3.059-2.128-2.926 2.261c-12.235 9.575-22.608 14.629-34.577 16.756a52.33 52.33 0 0 1-6.383.798c3.591-6.383 5.186-13.565 4.389-20.879-1.064-10.772-7.048-20.48-15.958-25.799-19.416-11.836-41.226-6.383-56.918 14.097l-68.754 89.899c-5.718 7.58-4.655 16.889-2.793 23.539-6.915-.133-16.224 1.197-21.943 8.777l-68.621 89.899c-15.692 20.613-15.294 43.088 1.197 58.913 6.117 5.984 14.629 9.176 23.406 9.176 1.862 0 3.724-.133 5.585-.399 9.442-1.596 17.82-6.915 23.406-14.895 1.463 2.793 2.793 5.984 3.857 9.442 5.186 15.294 8.112 32.582 8.378 49.87.266 17.687-3.591 41.625-9.974 61.307-7.979 24.47-25.401 50.801-25.666 51.067l-.931 1.33.133 1.596c.133 2.793 3.192 68.222 47.21 176.208 48.673 119.422 116.63 190.437 163.441 233.392 63.568 58.381 124.21 97.081 163.707 119.156 42.024 23.539 69.286 33.646 71.547 34.444l1.862.931 1.862-.798c2.261-.798 29.523-10.905 71.547-34.444 39.63-22.076 100.139-60.775 163.707-119.156 46.944-42.955 114.901-113.97 163.441-233.392 44.019-107.985 47.077-173.415 47.21-176.208v-1.596l-.931-1.33c-.133-.266-17.687-26.597-25.666-51.067-6.383-19.549-10.24-43.62-9.974-61.307.266-17.421 3.192-34.577 8.378-49.87 1.197-3.325 2.527-6.516 3.857-9.575 5.585 7.979 13.964 13.299 23.406 14.895 1.862.266 3.724.399 5.585.399 8.777 0 17.155-3.325 23.406-9.176 16.623-15.825 17.022-38.433 1.33-59.046zM740.871 33.114c.798-7.713 4.921-14.496 11.171-18.219 14.895-9.043 31.119-4.788 43.62 11.437 5.054 8.112 5.851 18.618 2.793 28.592a6159.316 6159.316 0 0 1-22.209-20.214l-4.788-4.256-2.926 5.718c0 .133-5.186 9.575-12.235 12.9-3.059 1.463-6.117 2.394-9.309 3.059-4.655-5.452-6.782-12.102-6.117-19.017zm53.327 31.385c-2.527 4.256-5.851 8.245-9.841 11.437a36.94 36.94 0 0 1-6.782 4.389c-3.857-3.458-12.102-10.639-22.475-20.081 1.729-.665 3.591-1.33 5.319-2.128 5.984-2.793 10.639-7.979 13.565-11.969a2483.937 2483.937 0 0 1 20.214 18.352zM696.32 49.205c10.373 6.915 19.948 10.905 30.853 12.9 5.585 1.064 10.905 1.197 16.091.798 9.841 9.176 18.219 16.623 23.672 21.544-8.378 1.995-16.889 1.995-23.805 1.995h-.399c-7.314 0-31.784-1.197-51.732-15.028 2.793-6.117 4.655-14.629 5.319-22.209zm-58.115 9.974c.266-.266.399-.532.665-.798 7.58.931 16.49.399 25.534-1.729 6.516-1.463 13.698-3.591 21.943-8.245-.665 7.979-2.793 17.288-5.851 21.411-5.186 6.915-26.065 16.623-48.806 16.623-21.012 0-33.114-8.112-39.497-17.421h22.076c.931 0 1.862 0 2.793-.133.931.133 1.729.133 2.793.133v-.532c7.447-1.064 13.831-4.256 18.352-9.309zm-36.306-.266h-14.496c-1.064-3.325-1.463-6.516-1.463-9.176 0-2.128.133-4.256.532-6.25h14.762c-.665 2.261-1.33 4.921-1.197 7.314.133 2.66.665 5.585 1.862 8.112zm7.049-38.433c7.048 0 23.672 1.862 25.666 19.815.532 4.655-.798 8.91-3.724 12.235-3.192 3.591-7.846 5.718-13.432 6.25-4.921-.665-7.181-3.325-7.314-8.245 0-2.793 1.862-7.447 3.192-9.575l4.256-7.58h-27.661c4.123-7.846 11.038-12.9 19.017-12.9zm-266.24 19.682c1.995-17.82 18.618-19.815 25.666-19.815 7.979 0 14.895 5.186 19.017 12.9H359.73l4.256 7.58c1.064 1.862 3.192 6.649 3.192 9.575-.133 4.921-2.394 7.58-7.314 8.245-5.585-.532-10.24-2.793-13.432-6.25-2.926-3.325-4.256-7.447-3.724-12.235zm33.246 3.325h14.762c.399 1.995.532 4.123.532 6.25 0 2.66-.399 5.851-1.463 9.176h-14.496c1.197-2.527 1.729-5.452 1.862-8.245.133-2.394-.399-4.921-1.197-7.181zm-63.036 13.298c9.043 2.128 17.82 2.66 25.534 1.729.266.266.399.532.665.798 4.522 5.054 10.905 8.245 18.352 9.309v.399c.931 0 1.862 0 2.793-.133.931.133 1.862.133 2.793.133h22.076c-6.383 9.309-18.352 17.421-39.497 17.421-22.608 0-43.62-9.708-48.673-16.623-3.059-4.123-5.186-13.432-5.851-21.411 8.112 4.655 15.294 6.782 21.81 8.378zm-62.769 5.32c10.905-1.995 20.48-5.984 30.853-12.9.532 7.58 2.394 16.091 5.319 22.209-19.948 13.831-44.418 15.028-51.732 15.028h-1.064c-6.782 0-15.028 0-23.273-2.128a879.064 879.064 0 0 0 23.672-21.544c5.319.532 10.639.399 16.224-.665zm-50.535 18.219c-2.261-1.197-4.522-2.66-6.782-4.389-3.99-3.192-7.314-7.181-9.841-11.437a2533.935 2533.935 0 0 1 20.347-18.485c2.926 3.99 7.58 9.176 13.565 11.969 1.729.798 3.458 1.463 5.319 2.128-10.373 9.575-18.618 16.889-22.608 20.214zm-18.087-54.126c12.501-16.224 28.858-20.48 43.62-11.437 6.25 3.724 10.373 10.639 11.171 18.219.665 6.915-1.463 13.565-5.984 19.017a44.908 44.908 0 0 1-9.309-3.059c-7.181-3.325-12.235-12.9-12.235-12.9l-2.926-5.718-4.788 4.256c-.133.133-12.501 11.171-22.209 20.214-3.192-9.841-2.394-20.48 2.66-28.592zM58.78 276.214c-3.99 7.58-10.639 12.501-18.751 13.831-7.58 1.197-15.161-1.064-20.48-6.117-12.501-12.102-12.634-28.991-.266-45.349 6.25-6.782 15.825-9.841 26.331-9.309-5.984 11.703-13.166 25.799-13.166 25.932l-5.851 11.437 11.703-4.123s4.921-1.064 14.496 5.984c2.261 1.596 4.389 3.99 6.516 6.915-.133.133-.399.532-.532.798zm5.586-10.639c-1.729-1.995-3.591-3.857-5.585-5.319-5.585-4.123-10.24-6.117-13.964-7.181 3.059-5.984 7.447-14.895 11.304-22.076 5.186 1.463 10.506 3.591 15.692 6.649 1.596.931 3.325 2.128 5.186 3.458-2.66 5.054-7.181 13.964-12.634 24.47zm12.368 143.36c6.649-20.48 10.772-45.881 10.506-64.499-.266-18.352-3.325-36.704-8.91-52.929-1.463-4.389-3.99-10.639-7.58-16.756 5.984-11.304 10.905-21.278 13.964-27.262 9.309 7.979 19.017 18.352 25.268 29.523 8.777 15.559 15.559 41.359 17.687 58.78 2.793 22.741-.532 53.727-8.644 80.723-6.383 21.145-21.012 46.678-26.464 55.855L53.33 457.209c5.718-9.176 17.155-28.858 23.406-48.274zm181.527 453.22c-46.146-42.423-113.039-112.241-161.047-229.802-34.71-85.245-43.62-144.69-45.748-165.037l38.433 14.895c.931 13.964 6.782 69.02 44.418 154.132 34.577 78.063 85.511 156.659 143.36 221.423 40.694 45.482 80.324 79.792 112.374 104.395-38.3-23.672-84.314-56.386-131.79-100.006zm291.241 114.901c-31.518 21.411-54.126 32.715-60.775 35.906-6.649-3.192-29.257-14.496-60.908-35.906-34.71-23.539-87.638-64.632-142.695-126.072-57.184-63.967-107.586-141.631-141.631-218.764-38.433-86.841-43.221-142.695-43.753-152.27 3.99-6.649 21.411-35.774 28.858-60.509 8.511-28.193 11.969-60.775 9.043-84.846-2.261-18.485-9.442-45.881-18.884-62.504-10.24-18.352-28.459-34.843-42.024-42.955-14.496-8.777-30.055-11.703-43.354-9.043l54.525-71.414c5.718-7.58 20.48-3.99 20.613-3.99l11.57 3.059-5.718-10.24-.133-.133c-.133-.133-7.314-13.432-1.596-21.012l54.126-70.882c.665 14.23 7.58 28.725 19.682 38.433 15.825 12.634 34.577 12.634 47.476 12.634h.399c21.145 0 42.29-6.25 57.716-16.889 10.639 9.575 32.981 16.889 53.328 16.889 40.96 0 55.855-27.927 55.855-46.811 0-11.57-4.256-22.076-11.038-29.257h196.555c-6.782 7.181-11.038 17.687-11.038 29.257 0 18.751 14.895 46.811 55.855 46.811 20.347 0 42.689-7.314 53.328-16.889 15.294 10.639 36.438 16.889 57.716 16.889h.399c12.634 0 31.651 0 47.476-12.634 12.102-9.708 19.15-24.337 19.682-38.433l54.126 70.882c5.718 7.58-1.463 20.879-1.596 21.012l-5.851 10.373 11.57-3.059c.133 0 14.895-3.591 20.613 3.99l54.525 71.414c-13.299-2.66-28.858.399-43.354 9.043-13.432 8.112-31.651 24.603-42.024 42.955-9.309 16.623-16.49 44.019-18.884 62.504-3.059 24.071.399 56.652 9.043 84.846 7.447 24.736 24.869 53.86 28.858 60.509-.532 9.442-5.319 65.43-43.62 152.137-34.178 77.132-84.447 154.797-141.631 218.764-54.791 61.573-107.719 102.666-142.429 126.205zm330.473-344.703C832.1 749.914 765.207 819.865 718.928 862.155c-48.673 44.684-95.485 77.531-132.189 100.272 32.183-24.603 71.946-59.046 112.773-104.794 57.982-64.765 108.783-143.36 143.36-221.423 37.635-85.112 43.487-140.168 44.418-154.132l38.433-14.895c-1.995 20.48-10.905 79.792-45.748 165.17zm18.884-340.845c-5.452 16.224-8.511 34.577-8.91 52.929-.266 18.618 3.857 44.019 10.506 64.499 6.25 19.283 17.82 39.098 23.406 48.274l-39.231 15.161c-5.452-9.176-20.081-34.71-26.464-55.855-8.112-26.996-11.437-57.982-8.644-80.723 2.128-17.421 8.91-43.354 17.687-58.78 6.25-11.171 15.958-21.544 25.268-29.523 3.059 5.984 7.979 15.825 13.964 27.262-3.591 6.117-6.117 12.368-7.58 16.756zm14.097-25.933c-5.452-10.639-9.974-19.549-12.501-24.47 1.729-1.33 3.591-2.394 5.186-3.458 5.054-3.059 10.373-5.319 15.692-6.649 3.724 7.181 8.245 16.091 11.304 22.076-3.724.931-8.378 3.059-13.964 7.181-2.128 1.596-3.99 3.458-5.718 5.319zm44.816 18.485c-5.186 5.054-12.9 7.314-20.48 6.117-8.112-1.33-14.762-6.25-18.751-13.831-.133-.266-.399-.665-.532-.931 2.128-2.926 4.256-5.186 6.516-6.915 7.58-5.585 12.235-6.117 13.698-6.117h.532l11.703 4.123-5.585-11.171c-.133-.133-7.181-14.363-13.166-25.932 10.639-.532 20.081 2.527 26.331 9.309 12.368 16.357 12.235 33.247-.266 45.349z"/><path fill="#242a60" d="M3106.045 777.176c-11.703-13.299-39.896-48.54-60.243-75.67 12.9-13.166 33.247-32.582 43.088-41.492 15.426-14.097 25.135-17.82 42.423-21.544v-4.655h-71.015v4.655l11.171 2.527c10.24 2.66 10.107 7.181 3.192 16.224-8.511 11.038-28.725 32.183-42.423 44.817-8.777 7.979-15.692 11.437-19.416 12.634v-44.684c0-28.06 1.596-30.72 15.692-31.518v-4.655h-67.823v4.655c13.299 1.064 15.161 2.926 15.294 27.129v106.656c-.133 24.869-2.128 26.198-15.294 27.395v4.655h67.424v-4.655c-11.57-.931-14.496-2.527-15.161-19.283v-59.844c3.724.532 8.644 3.857 14.097 11.304 13.964 18.618 46.545 62.504 53.86 72.345h57.583v-4.921c-12.235-4.123-19.283-7.048-32.449-22.076zM2254.795 633.949h-6.782v4.921c2.66.266 4.921.532 6.782.931 6.383 1.463 8.511 5.186 9.043 18.352 0 1.33.133 2.66.133 4.123l.133 45.216v41.359L2162.635 633.95h-42.822v4.921c12.235.931 15.294 2.66 15.958 20.214 0 .931.133 1.995.133 3.059v113.837c0 1.463-.133 2.926-.133 4.123-.532 13.166-2.66 16.889-9.043 18.352-1.862.399-4.123.665-6.915.931v4.921h45.881v-4.921c-11.969-1.064-15.161-2.261-15.958-19.283 0-1.33-.133-2.66-.133-4.123l-.133-105.459 115.3 135.913h12.102V694.593l.133-32.183c0-1.463.133-2.926.133-4.123 0-1.33.133-2.394.266-3.591 1.064-13.565 4.655-14.762 15.692-15.692v-4.921h-38.3zM1430.807 629.428c-45.615 0-90.83 31.651-90.83 90.431 0 45.482 33.114 88.835 91.495 88.835 46.279 0 90.165-31.784 90.165-91.229-.133-48.274-35.906-88.037-90.83-88.037zm4.256 170.489c-31.651 0-54.126-32.05-54.126-86.176 0-53.727 19.815-75.67 45.615-75.67 33.646 0 53.86 39.231 53.86 85.644.133 55.456-20.214 76.202-45.349 76.202zM1751.705 786.884c-9.575 9.309-16.357 7.979-37.103 7.979l-23.14.133c-20.746 0-26.331-1.596-26.331-22.608V634.214c0-29.523 1.33-32.316 16.091-33.114v-4.921h-71.281v4.921c14.762 1.197 16.091 3.325 16.091 33.114v131.657c0 30.72-1.463 32.183-16.091 33.513v4.921h148.148c1.862-4.522 5.984-18.884 9.043-32.05l-4.655-1.197c-2.926 6.516-7.048 12.368-10.772 15.825zM1909.428 786.751c-7.181 8.511-18.751 7.713-39.364 7.713-9.575 0-15.028-.399-19.283-.931-11.836-1.463-15.161-8.511-15.161-25.932v-47.077h29.523c15.426 0 19.017-1.064 22.741 18.485h5.585v-48.274h-5.585c-3.192 18.618-6.25 19.017-22.741 19.017h-29.523v-57.317c0-7.846.798-8.777 9.575-8.777h24.071c14.363 0 23.007-.532 29.124 8.378 2.527 3.325 3.192 8.245 4.655 15.825l4.123-.532c-.931-13.565-1.463-28.193-1.729-34.311-5.054.399-21.943.798-35.906.798h-87.106v4.921c12.235.931 15.294 2.66 15.958 20.214.133 3.591.133 7.846.133 12.9v94.022c0 3.724 0 7.048-.133 9.974-.399 21.012-3.192 22.342-16.091 23.406v4.921h129.928c1.33-4.389 4.123-15.692 6.516-26.331l-4.123-1.064c-.665 3.857-3.059 7.447-5.186 9.974zM2051.857 638.737c14.496.532 19.416 1.197 19.948 18.751.266 7.846.266 21.278.266 45.748v22.342c0 43.487-11.703 65.031-45.748 65.031-29.124 0-43.221-18.485-43.221-57.317v-61.44l.133-12.9c.665-17.554 3.724-19.283 15.958-20.214v-4.921h-69.153v4.921c12.235.931 15.294 2.66 15.958 20.214l.133 12.235v64.233c0 31.119 7.58 48.274 23.007 60.11 11.969 9.575 29.789 13.166 46.944 13.166 19.948 0 37.236-5.054 49.604-17.687 14.363-14.496 19.017-35.641 19.017-66.095v-21.943c0-25.002.266-34.843 1.064-43.62 1.729-19.682 3.591-20.081 18.219-20.613v-4.921h-51.998v4.921zM2413.448 722.385v4.921c11.836.931 15.161 2.66 15.958 18.751l.133 34.045c0 15.559-8.644 20.347-20.746 20.347-40.827 0-60.642-41.093-60.642-85.112 0-53.993 25.666-77.664 57.583-77.664 25.799 0 47.077 9.974 56.386 45.083l5.984-1.064c-2.128-19.283-3.059-34.045-3.857-46.944-6.516-.798-28.991-5.186-52.929-5.186-56.652 0-104.395 31.385-104.395 91.362 0 52.397 34.843 87.904 98.942 87.904 21.677 0 44.684-5.585 62.504-10.107-1.33-5.718-2.261-14.23-2.261-23.539v-23.805c0-17.554 1.729-19.15 17.022-23.406v-5.452h-69.685v-.133zM2894.063 638.737c14.496.532 19.416 1.197 19.948 18.751.266 7.846.266 21.278.266 45.748v22.342c0 43.487-11.703 65.031-45.748 65.031-29.124 0-43.221-18.485-43.221-57.317v-61.44l.133-12.9c.665-17.554 3.724-19.283 15.958-20.214v-4.921h-69.153v4.921c12.235.931 15.294 2.66 15.958 20.214l.133 12.235v64.233c0 31.119 7.58 48.274 23.007 60.11 11.969 9.575 29.789 13.166 46.944 13.166 19.948 0 37.236-5.054 49.604-17.687 14.363-14.496 19.017-35.641 19.017-66.095v-21.943c0-25.002.266-34.843 1.064-43.62 1.729-19.682 3.591-20.081 18.219-20.613v-4.921h-51.998v4.921zM2751.501 781.565l-94.288-98.942c23.539-21.012 47.742-42.024 66.626-58.248 19.416-16.357 19.416-19.948 42.689-23.406v-4.655h-69.951v4.655l8.112 1.463c19.15 3.857 19.283 6.782 6.782 18.751-18.352 17.155-47.476 44.019-69.818 61.839-6.915 5.452-13.831 9.841-18.618 11.304v-60.11c0-29.523 1.729-32.316 16.49-33.114v-4.921h-71.281v4.921c13.964 1.064 15.958 3.059 16.091 28.459v140.966c-.133 26.065-2.261 27.528-16.091 28.725v4.921h70.882v-4.921c-12.235-.931-15.294-2.66-15.958-20.214l-.266-79.127c3.192 1.064 6.649 4.389 14.363 13.033 23.406 25.401 58.913 64.233 84.846 91.229h58.381v-4.921c-9.176-2.66-17.82-7.314-25.002-13.698l-3.99-3.99zM1301.544 608.416c-13.831-8.378-33.779-12.235-61.706-12.235h-80.191v4.921c13.432 1.064 15.692 2.926 16.091 25.666v139.104c0 3.192 0 6.117-.133 8.777-.399 22.209-2.926 23.539-16.091 24.736v4.921h77.664v-4.921c-19.416-3.458-22.342-9.176-22.342-32.848V712.81s13.698 5.186 31.252 5.319c36.172.266 80.989-19.682 80.989-64.366 0-20.347-9.309-35.242-25.534-45.349zm-64.765 99.873c-9.043 0-17.288-.665-21.943-2.128V619.32c0-7.58 1.064-11.304 3.724-13.166 2.527-1.463 7.447-2.66 15.294-2.66 28.326 0 50.801 13.565 50.801 50.668 0 47.742-31.784 54.126-47.875 54.126zM1178.398 362.656v171.553c26.065 0 36.438-11.171 36.438-11.171V297.891l.266-.532c5.186-12.767 10.24-26.863 15.161-42.423.399-1.064 1.064-2.128 2.128-2.66 1.596-.798 4.256-1.463 8.245-2.394 4.921-1.064 7.713-2.128 8.644-5.585.266-.798.133-1.596-.266-2.394-2.926-5.984-15.294-9.309-15.294-9.309-5.452-1.33-11.304-3.059-16.889-4.788-5.452-1.33-11.304-3.059-16.889-5.186-6.117 35.906-13.033 66.626-21.012 92.16a569.117 569.117 0 0 1-15.426 37.901c-5.851 13.432-12.368 27.262-19.948 41.093l5.186 5.585c5.186-5.851 10.373-12.102 15.161-18.352 4.921-5.851 9.708-12.102 14.496-18.352zM2161.172 467.449v-47.742c0-1.463 1.995-4.123 5.452-6.915 1.463-1.064 2.527-1.862 3.591-3.325.931-1.064 1.862-2.793 1.862-3.591.133-2.793-5.452-7.58-16.49-15.161-9.575-6.915-16.49-10.639-19.948-10.373-3.591.266-6.117 2.128-8.644 4.788l-10.373 12.767h-39.497c-7.58-3.059-15.161-6.25-22.342-8.91-7.58-2.793-14.363-5.186-21.278-7.181 0 5.186.665 18.751 1.197 26.065.133 2.527.266 5.054.266 7.58v71.813c25.135.798 37.768-10.905 37.768-10.905v-9.708h50.801v12.368c25.002.133 37.635-11.57 37.635-11.57zm-88.303-10.24v-50.003h50.801v50.003h-50.801zM1704.761 256.931c11.171 0 16.756-5.186 16.756-15.559 0-17.288-19.815-26.597-62.637-26.597h-4.788l-3.059 5.054c11.836 4.522 22.475 11.304 31.518 21.278 9.708 10.506 17.022 15.825 22.209 15.825z"/><path fill="#242a60" d="M1254.466 307.466c-.399 6.25-.665 12.368-.665 18.352-.399 6.25-.665 23.14-.665 28.991 27.528.665 38.832-11.171 38.832-11.171v-9.309h26.73v50.003h-96.416l2.926 9.309h74.207c-10.24 24.869-21.943 46.545-35.774 65.164-12.102 15.426-25.666 29.39-38.566 40.162l5.851 6.915c4.123-1.862 8.112-3.857 12.102-5.984 7.58-4.123 15.161-8.644 22.342-13.831 13.698-9.708 26.464-21.012 37.502-34.178 4.522-5.585 9.575-12.767 15.825-22.475v104.528c26.331.532 37.768-11.703 37.768-11.703V414.121c2.128 6.25 4.788 11.703 7.846 17.288 2.793 5.851 6.25 11.437 9.974 16.889 10.24 17.554 21.677 31.784 34.045 42.157 11.038 10.639 18.485 16.224 21.943 16.224 2.261 0 3.325-1.995 3.724-3.99.399-2.261 1.064-4.522 1.862-6.649 1.463-4.123 3.325-8.112 5.851-11.703a50.69 50.69 0 0 1 6.915-8.112c1.33-1.197 2.66-2.394 4.123-3.458.665-.532 3.857-2.527 4.522-3.059l.532-.532c1.862-1.862.931-4.921-1.596-5.585-16.357-4.522-32.582-12.235-48.806-22.608-8.644-5.186-16.889-11.703-24.337-19.948-7.846-7.58-15.426-16.889-22.608-27.262h91.362c2.926 0 5.054-.931 6.117-2.66.798-1.33.665-3.059-.133-4.389-1.33-2.394-4.522-7.447-13.565-17.022-13.432-14.097-21.145-16.091-21.145-16.091-.665-.133-1.33-.133-1.862.133-2.394 1.33-7.048 6.782-14.097 16.224l-11.703 14.496h-38.965v-50.003h29.523v16.357s25.268 1.064 38.832-11.304c-1.33-18.618-1.729-32.981-1.33-44.019v-26.863c0-5.585 1.729-6.649 5.186-10.373 3.325-3.325 8.378-9.309 5.851-12.235a49.553 49.553 0 0 0-3.857-3.99 78.25 78.25 0 0 0-3.059-2.527c-6.516-5.319-13.565-9.841-20.879-13.698-3.325-1.729-5.984-3.059-7.846-3.724-1.596-.532-3.192-.665-4.788-.133-2.527.931-4.788 2.66-7.181 5.319-4.788 4.788-9.575 10.373-14.363 15.825h-74.473c-8.245-3.059-16.091-6.25-23.672-8.91-7.58-2.793-15.161-5.186-22.608-7.314 1.33 16.623 2.394 33.114 2.793 49.737v30.853zm37.503-55.19h94.155v72.744h-94.155v-72.744zM1990.417 482.078c10.373-19.948 17.554-42.157 22.342-65.962 1.995-15.825 3.458-33.513 4.123-53.461h183.389c0 24.204-1.995 48.939-6.117 75.271-1.729 12.102-3.059 21.411-4.522 28.326-1.33 6.915-2.527 11.57-4.123 13.432-5.851 6.915-14.762 5.851-14.762 5.851-7.58 0-19.948-1.33-32.715-3.458 0 0-1.463 7.58-1.33 7.58.532.133 1.197.532 1.729.665 2.128.798 6.782 2.66 7.048 2.793.665.399 5.319 3.059 5.585 3.192 5.452 3.325 10.506 7.447 14.629 12.501 3.458 4.256 5.585 8.91 7.979 13.831a60.557 60.557 0 0 0 2.66 5.054c.399.665 1.33 2.394 2.261 2.394 4.123 0 10.373-2.128 19.283-5.851 3.458-1.729 9.708-5.054 15.294-10.639 5.984-5.984 8.91-14.097 11.171-22.209 2.394-8.245 4.788-18.618 7.181-30.986 3.724-30.321 6.117-56.652 7.58-78.728 0-1.33.399-2.793 1.729-4.522l9.974-9.708c1.064-1.064 1.729-2.128 1.729-3.458s-1.064-3.99-3.724-6.915c-11.038-11.969-25.135-19.283-25.135-19.283-2.793-1.596-5.054-2.527-6.915-3.059-1.33-.399-2.527-.266-3.857.266-2.261.931-5.319 3.192-9.841 8.91-2.527 3.192-8.245 9.442-8.245 9.442h-177.538v-13.831c0-4.522 0-9.309.399-14.496v-14.895h161.047v12.634c24.603.133 37.768-11.304 37.768-11.304v-44.418c0-2.394 2.793-4.522 7.58-7.314 4.123-1.729 6.516-3.99 7.048-6.383.266-.931 0-1.729-.399-2.66-.798-1.463-2.128-3.325-4.256-5.186-22.475-19.283-32.449-21.677-34.311-21.677-3.458 0-6.516 1.729-9.309 5.186-3.458 4.123-6.915 8.644-10.639 13.831h-150.142c-11.304-5.585-26.73-11.437-46.014-17.554 2.793 20.746 4.123 53.86 4.123 99.74 0 57.317-2.793 99.74-8.245 128.066-2.394 11.703-5.851 23.805-9.974 35.906-4.123 12.368-9.309 25.135-15.426 38.3l7.846 3.192c15.825-16.224 27.129-32.449 36.039-48.407zm27.262-229.802h161.047v48.673h-161.047v-48.673zM1816.337 530.086c1.995.798 3.724 1.33 6.117 1.995 1.463.399 5.851 1.463 9.176.798 1.862-.133 3.325-1.995 3.724-3.724a49.74 49.74 0 0 1 1.596-5.984c1.33-3.724 3.059-7.181 5.186-10.506 1.729-2.66 3.857-5.054 6.25-7.314 1.197-1.064 2.394-2.128 3.591-3.059.665-.532 3.458-2.261 4.389-3.192.798-.798 1.064-1.995.665-2.926-.266-1.197-.931-2.128-2.261-2.527-3.325-.931-6.782-1.729-10.373-2.66-25.401-6.516-49.072-14.762-70.616-25.135-8.91-3.857-16.224-7.846-23.14-13.432 30.853-7.58 54.791-15.958 72.212-23.539l18.884 2.793c3.458.399 5.186-1.33 5.186-5.585 0-2.793-4.256-8.777-13.432-14.097a461.095 461.095 0 0 1-30.853-19.682c-.665-8.245-1.064-16.224-1.064-23.406v-23.938-55.721c0-5.585 1.729-6.649 5.186-10.373 3.325-3.325 8.378-9.309 5.851-12.235a49.553 49.553 0 0 0-3.857-3.99c-.931-.798-1.862-1.596-2.926-2.527-6.25-5.054-13.033-9.442-20.081-13.299-2.926-1.463-5.718-2.793-7.846-3.192a3.242 3.242 0 0 0-1.596 0 10.496 10.496 0 0 0-3.99 1.596s-8.245 5.452-19.283 18.618h-116.098c-8.644-3.458-16.49-6.25-23.672-8.91-7.181-2.128-13.698-4.123-19.948-5.851 1.33 7.58 2.394 16.889 3.059 27.927s1.064 25.799 1.064 39.896v162.377c-13.698 1.33-27.528 2.128-41.625 2.128 1.995 5.851 3.724 10.639 5.452 14.496 1.729 4.123 10.639 25.534 13.698 30.055s6.117 6.915 8.91 6.915c2.261 0 2.66-2.793 3.192-4.389.399-1.463.532-2.926 1.064-4.389.399-1.33 1.197-2.394 2.394-3.325 1.729-1.33 3.724-1.995 5.718-2.394 42.556-8.91 77.797-20.746 116.231-40.827l-3.059-7.447c-13.033 1.729-20.081 2.261-33.646 3.857-13.698 1.596-27.395 2.261-41.226 2.926v-85.91h51.732c3.059 13.831 6.915 25.799 11.304 36.172 0 0 14.762 37.369 52.131 65.696 8.91 6.782 16.623 11.836 24.869 16.756 8.245 4.788 16.091 8.91 24.071 12.368 7.314 3.591 12.9 6.383 17.687 8.112zm-181.395-256.798h128.864v47.476h-128.864v-47.476zm0 108.518v-51.732h128.864v51.732h-128.864zm105.991 64.365c-35.508-26.464-43.62-55.057-43.62-55.057h66.361v17.288c17.953.532 31.252-5.984 31.252-5.984-3.458 4.522-7.181 8.644-11.304 12.368-4.123 4.123-8.245 8.245-12.767 11.703-9.575 8.378-20.879 14.097-29.922 19.682z"/></svg>